<svg width="317" height="238" viewBox="0 0 317 238" fill="none" xmlns="http://www.w3.org/2000/svg">
<g clip-path="url(#clip0_134_86)">
<rect width="317" height="238" rx="50" fill="white"/>
<path d="M316.692 -0.000976562H-0.307861V237.999H316.692V-0.000976562Z" fill="#F6EEE8"/>
<path d="M229.458 208.2L211.421 207.803L209.836 193.991L203.765 141.036L200.936 188.489L186.227 189.56L186.976 103.67L217.479 105.447L227.802 193.991L229.458 208.2Z" fill="#B8C1D0"/>
<path d="M218.692 102.964C218.692 103.019 220.859 122.039 220.859 122.039L215.708 122.162C214.276 122.198 212.884 121.688 211.814 120.736C210.743 119.784 210.073 118.461 209.939 117.034L208.678 103.666L218.692 102.964Z" fill="#4B764A"/>
<path d="M221.699 108.22C219.718 108.22 219.076 106.002 219.511 104.146C219.947 102.289 223.28 103.353 223.28 103.353L221.699 108.22Z" fill="black"/>
<path d="M203.218 51.7224C204.609 56.3951 206.107 60.7584 208.71 59.4375C210.418 58.5688 208.583 55.0028 203.559 51.1075L203.218 51.7224Z" fill="black"/>
<path d="M231.839 106.502C227.084 107.585 221.699 108.216 221.699 108.216C222 104.047 222.056 96.6885 220.407 94.7687L223.217 94.5703L219.829 88.4141L208.972 88.6045L193.649 88.8702L180.529 89.0963C180.529 89.0963 183.081 74.5704 183.699 71.1948C184.317 67.8191 187.174 64.0548 191.521 63.309C193.137 63.0234 194.449 62.8568 195.456 62.7537C195.975 62.7061 196.414 62.6704 196.771 62.6506C197.326 62.6228 197.694 62.6188 197.873 62.6188H197.999L204.494 61.8691C204.962 61.9247 205.417 61.9762 205.861 62.0199L207.402 62.1825C216.378 63.0988 219.46 62.9758 222.765 66.5141C226.399 70.4252 227.425 73.6541 229.533 78.6005C231.641 83.547 235.223 91.8373 236.356 95.3954C237.49 98.9535 236.61 105.423 231.839 106.502Z" fill="#4B764A"/>
<path d="M209.118 89.8777C209.118 89.8777 193.629 90.3735 193.522 90.2506C193.522 90.2506 193.558 89.7349 193.649 88.8741C193.667 88.7023 193.687 88.5158 193.708 88.3148L194.857 88.4299L197.889 62.6227H198.015L204.51 61.873L205.302 61.9603L207.43 87.1804C207.43 87.1804 208.251 87.1367 208.809 87.1209L208.984 88.6044L209.118 89.8777Z" fill="#B7AD7A"/>
<path d="M209.732 85.4311H209.709C209.69 85.4269 209.671 85.4189 209.655 85.4076C209.639 85.3963 209.626 85.3819 209.616 85.3653C209.605 85.3486 209.598 85.3301 209.595 85.3107C209.592 85.2914 209.593 85.2716 209.598 85.2526C210.271 82.3411 211.512 76.9226 211.694 76.1293L208.587 73.9754C208.568 73.9619 208.552 73.9438 208.541 73.9227C208.529 73.9017 208.524 73.8782 208.524 73.8544C208.524 73.8306 208.529 73.8071 208.541 73.786C208.552 73.7649 208.568 73.7469 208.587 73.7334L211.409 71.7104L208.203 64.3522C208.193 64.3172 208.197 64.2799 208.212 64.2472C208.228 64.2145 208.255 64.1885 208.288 64.174C208.321 64.1595 208.359 64.1576 208.393 64.1684C208.428 64.1793 208.457 64.2023 208.476 64.2332L211.73 71.7025C211.743 71.7336 211.745 71.7684 211.736 71.8009C211.726 71.8334 211.706 71.8617 211.678 71.881L208.928 73.8643L211.936 75.9587C211.96 75.9755 211.979 75.9992 211.989 76.0268C212 76.0544 212.002 76.0846 211.995 76.1134C211.995 76.1134 210.6 82.1705 209.875 85.32C209.867 85.3518 209.849 85.38 209.823 85.4002C209.797 85.4203 209.765 85.4312 209.732 85.4311Z" fill="black"/>
<path d="M192.995 85.8278C192.961 85.8277 192.927 85.8158 192.901 85.7942C192.874 85.7725 192.856 85.7424 192.848 85.7088L190.986 76.4625C190.981 76.4353 190.983 76.4072 190.993 76.3813C191.003 76.3554 191.02 76.3328 191.041 76.3157L193.74 74.269L191.034 71.8096C191.01 71.7881 190.994 71.7596 190.987 71.7282C190.981 71.6968 190.985 71.6642 190.998 71.6351L194.596 64.2214C194.617 64.1933 194.647 64.1734 194.681 64.1653C194.715 64.1571 194.751 64.1611 194.783 64.1766C194.814 64.1922 194.839 64.2182 194.854 64.2503C194.868 64.2824 194.871 64.3184 194.861 64.3523L191.295 71.6668L194.069 74.1698C194.086 74.1839 194.099 74.2016 194.108 74.2214C194.117 74.2413 194.122 74.2629 194.122 74.2848C194.122 74.3067 194.117 74.3283 194.108 74.3482C194.099 74.3681 194.086 74.3857 194.069 74.3999L191.295 76.4982L193.138 85.6533C193.145 85.6916 193.137 85.7312 193.115 85.7637C193.094 85.7963 193.061 85.8192 193.023 85.8278H192.995Z" fill="black"/>
<path d="M204.51 61.881C204.3 62.2301 200.619 66.526 200.619 66.526C200.048 65.8596 198.637 62.8171 198.637 62.8171C198.637 62.6386 198.467 61.5002 198.289 60.4887C198.138 59.624 197.996 58.8545 197.996 58.8545C195.313 59.0449 193.439 57.5217 193.502 52.0635C193.53 49.509 193.926 47.3829 194.691 45.8597C195.574 44.1262 196.961 43.1623 198.863 43.2179C202.43 43.321 203.971 47.2639 203.848 51.0996C204.213 51.5598 204.09 53.0829 203.111 53.5034C203.151 53.4994 203.642 59.2035 204.51 61.881Z" fill="#F88D7A"/>
<path d="M194.868 51.1404C194.907 50.8915 194.823 50.6716 194.68 50.6492C194.537 50.6268 194.39 50.8104 194.351 51.0592C194.312 51.3081 194.396 51.5281 194.539 51.5505C194.681 51.5729 194.829 51.3893 194.868 51.1404Z" fill="black"/>
<path d="M198.205 51.0597C198.215 50.8077 198.106 50.5988 197.962 50.593C197.817 50.5872 197.692 50.7868 197.682 51.0387C197.672 51.2906 197.781 51.4996 197.925 51.5053C198.07 51.5111 198.195 51.3116 198.205 51.0597Z" fill="black"/>
<path d="M203.888 51.0957C203.095 50.2072 202.362 50.6713 202.362 50.6713C201.57 50.0802 200.472 48.5531 200.587 48.4222C202.172 46.6015 200.337 45.5701 200.337 45.5701C197.889 46.7205 196.153 46.6411 194.73 45.8557C195.614 44.1223 197.001 43.1584 198.903 43.2139C202.481 43.3171 204.011 47.2599 203.888 51.0957Z" fill="black"/>
<path d="M199.248 50.1437C199.212 50.143 199.177 50.1295 199.15 50.1054C199.123 50.0814 199.106 50.0485 199.101 50.0127C199.073 49.9273 199.029 49.8483 198.971 49.7802C198.912 49.7121 198.841 49.6563 198.76 49.6161C198.598 49.5167 198.415 49.4555 198.226 49.4369C198.036 49.4184 197.845 49.443 197.667 49.509C197.648 49.5189 197.627 49.5246 197.605 49.5256C197.584 49.5267 197.562 49.5231 197.542 49.5152C197.522 49.5072 197.504 49.4951 197.489 49.4796C197.474 49.464 197.463 49.4455 197.456 49.4251C197.448 49.4048 197.446 49.3832 197.448 49.3617C197.45 49.3402 197.456 49.3194 197.467 49.3007C197.477 49.2819 197.492 49.2657 197.509 49.2531C197.527 49.2404 197.547 49.2316 197.568 49.2274C197.789 49.1471 198.025 49.1179 198.259 49.142C198.493 49.166 198.719 49.2426 198.919 49.3662C199.038 49.4281 199.144 49.5145 199.228 49.6197C199.311 49.7249 199.372 49.8467 199.406 49.9771C199.411 50.0165 199.4 50.056 199.375 50.0872C199.351 50.1184 199.315 50.1387 199.276 50.1437H199.248Z" fill="black"/>
<path d="M202.485 52.2341C202.451 52.2363 202.418 52.2267 202.39 52.2071C202.363 52.1874 202.343 52.1588 202.334 52.1261C202.325 52.0934 202.328 52.0586 202.342 52.0277C202.355 51.9968 202.38 51.9716 202.41 51.9564C202.703 51.7858 203.131 51.4804 203.135 51.4764C203.167 51.4533 203.207 51.4438 203.246 51.4502C203.285 51.4565 203.32 51.4781 203.343 51.5101C203.366 51.5422 203.376 51.5822 203.369 51.6213C203.363 51.6603 203.341 51.6953 203.309 51.7184C203.309 51.7184 202.865 52.0357 202.56 52.2142C202.538 52.2275 202.511 52.2344 202.485 52.2341Z" fill="black"/>
<path d="M196.05 53.4042H196.018C195.577 53.3179 195.147 53.1849 194.734 53.0076C194.68 52.9759 194.633 52.9323 194.597 52.8802C194.562 52.828 194.538 52.7685 194.528 52.7061C194.481 52.4046 194.715 51.9683 195.321 51.2503C195.491 50.5482 195.404 49.9334 195.095 49.6637C195.011 49.5878 194.907 49.5371 194.796 49.5175C194.684 49.4978 194.57 49.51 194.465 49.5526C194.428 49.5647 194.387 49.5615 194.352 49.5436C194.317 49.5258 194.291 49.4948 194.279 49.4574C194.267 49.4201 194.27 49.3794 194.288 49.3445C194.305 49.3095 194.336 49.2831 194.374 49.271C194.529 49.2117 194.698 49.1969 194.861 49.2285C195.024 49.26 195.175 49.3366 195.297 49.4495C195.693 49.8223 195.808 50.5403 195.598 51.3773C195.592 51.3993 195.582 51.4197 195.566 51.4368C194.913 52.2301 194.802 52.5435 194.826 52.6823C194.829 52.7027 194.837 52.7219 194.85 52.7385C194.862 52.755 194.878 52.7684 194.897 52.7775C195.28 52.9374 195.678 53.0583 196.086 53.1385C196.124 53.1427 196.16 53.1622 196.185 53.1927C196.209 53.2232 196.221 53.2622 196.216 53.3011C196.212 53.34 196.193 53.3757 196.162 53.4002C196.132 53.4248 196.093 53.4362 196.054 53.432L196.05 53.4042Z" fill="black"/>
<path d="M196.494 54.8243C196.459 54.8186 196.427 54.8004 196.403 54.7732C196.38 54.7459 196.368 54.7113 196.368 54.6756C196.368 54.6398 196.38 54.6052 196.403 54.578C196.427 54.5507 196.459 54.5326 196.494 54.5268C197.346 54.5268 197.536 54.2135 197.56 53.7335C197.563 53.6946 197.58 53.6582 197.609 53.6317C197.638 53.6052 197.675 53.5906 197.714 53.5907C197.734 53.5912 197.753 53.5956 197.771 53.6037C197.789 53.6118 197.805 53.6234 197.818 53.6379C197.832 53.6523 197.842 53.6692 197.849 53.6877C197.855 53.7062 197.858 53.7258 197.857 53.7454C197.821 54.7133 197.057 54.8243 196.494 54.8243Z" fill="black"/>
<path d="M200.809 57.5098C200.699 58.191 200.404 58.829 199.957 59.3543C199.51 59.8795 198.927 60.2719 198.273 60.4887C198.142 59.7311 198.015 58.8545 198.015 58.8545C199.063 58.707 200.04 58.2371 200.809 57.5098Z" fill="black"/>
<path d="M130.502 41.2782C70.1415 41.2782 84.6879 94.2134 82.7938 207.918H178.211C176.317 94.2054 190.863 41.2782 130.502 41.2782Z" fill="white"/>
<path d="M130.506 208.116C130.454 208.116 130.403 208.095 130.366 208.058C130.329 208.021 130.308 207.97 130.308 207.918V41.2782C130.308 41.2256 130.329 41.1751 130.366 41.1379C130.403 41.1007 130.454 41.0798 130.506 41.0798C130.559 41.0798 130.609 41.1007 130.646 41.1379C130.683 41.1751 130.704 41.2256 130.704 41.2782V207.918C130.704 207.97 130.683 208.021 130.646 208.058C130.609 208.095 130.559 208.116 130.506 208.116Z" fill="#F6EEE8"/>
<path d="M130.506 80.572H84.973C84.9205 80.572 84.8701 80.5511 84.8329 80.5139C84.7958 80.4767 84.7749 80.4262 84.7749 80.3736C84.7749 80.321 84.7958 80.2706 84.8329 80.2334C84.8701 80.1962 84.9205 80.1753 84.973 80.1753H130.506C130.559 80.1753 130.609 80.1962 130.646 80.2334C130.683 80.2706 130.704 80.321 130.704 80.3736C130.704 80.4262 130.683 80.4767 130.646 80.5139C130.609 80.5511 130.559 80.572 130.506 80.572Z" fill="#F6EEE8"/>
<path d="M130.506 142.547H82.639C82.5865 142.547 82.5361 142.526 82.4989 142.489C82.4618 142.452 82.4409 142.401 82.4409 142.349C82.4409 142.296 82.4618 142.246 82.4989 142.209C82.5361 142.171 82.5865 142.151 82.639 142.151H130.506C130.559 142.151 130.609 142.171 130.646 142.209C130.683 142.246 130.704 142.296 130.704 142.349C130.704 142.401 130.683 142.452 130.646 142.489C130.609 142.526 130.559 142.547 130.506 142.547Z" fill="#F6EEE8"/>
<path d="M176.027 80.572H130.506C130.454 80.572 130.403 80.5511 130.366 80.5139C130.329 80.4767 130.308 80.4262 130.308 80.3736C130.308 80.321 130.329 80.2706 130.366 80.2334C130.403 80.1962 130.454 80.1753 130.506 80.1753H176.027C176.08 80.1753 176.13 80.1962 176.168 80.2334C176.205 80.2706 176.226 80.321 176.226 80.3736C176.226 80.4262 176.205 80.4767 176.168 80.5139C176.13 80.5511 176.08 80.572 176.027 80.572Z" fill="#F6EEE8"/>
<path d="M178.369 142.547H130.506C130.454 142.547 130.403 142.526 130.366 142.489C130.329 142.452 130.308 142.401 130.308 142.349C130.308 142.296 130.329 142.246 130.366 142.209C130.403 142.171 130.454 142.151 130.506 142.151H178.373C178.426 142.151 178.476 142.171 178.513 142.209C178.55 142.246 178.571 142.296 178.571 142.349C178.571 142.401 178.55 142.452 178.513 142.489C178.476 142.526 178.426 142.547 178.373 142.547H178.369Z" fill="#F6EEE8"/>
<path d="M185.323 103.36V122.166H188.755C189.754 122.167 190.717 121.793 191.455 121.12C192.193 120.446 192.653 119.521 192.745 118.525L194.152 103.36H185.323Z" fill="#4B764A"/>
<path d="M229.458 208.199L211.42 207.803L210.921 203.459L210.85 202.821L209.835 193.991H227.801L228.832 202.821L229.228 206.236L229.458 208.199Z" fill="#F88D7A"/>
<path d="M229.458 208.2L211.42 207.803L210.921 203.459L229.228 206.236L229.458 208.2Z" fill="black"/>
<path d="M220.241 109.009L205.746 109.064L166.518 109.215L166.43 86.7004L171.669 86.6687L177.422 86.6449H182.047L187.8 86.6211H192.428L198.182 86.6013H202.767H205.647H208.52L220.142 86.5576L220.174 94.8559C218.382 94.9572 216.585 94.9572 214.793 94.8559C213.077 94.7448 211.357 94.7448 209.641 94.8559C208.544 94.9551 208.056 95.1494 208.239 95.8634C208.421 96.5774 211.484 96.7163 212.253 97.2121C213.021 97.7079 213.667 98.4616 212.142 99.4413C211.143 100.084 208.532 100.818 205.691 101.234C205.227 101.306 204.76 101.365 204.292 101.417C202.707 101.587 202.386 102.813 204.839 103.035C204.094 103.432 204.276 104.546 205.707 104.749C205.794 104.749 205.885 104.773 205.98 104.777C205.858 104.838 205.761 104.941 205.707 105.066C205.669 105.155 205.65 105.25 205.65 105.346C205.65 105.442 205.669 105.537 205.707 105.625C205.865 106.022 206.384 106.443 207.359 106.454C206.991 106.752 207.87 107.644 209.455 107.525C212.195 107.213 214.883 106.546 217.452 105.542C218.075 105.375 218.713 105.268 219.358 105.225C219.315 105.685 219.37 106.149 219.516 106.588C219.663 107.026 219.899 107.429 220.209 107.771L220.241 109.009Z" fill="#E4D0C0"/>
<path d="M176.132 83.851L172.962 83.8632C172.248 83.8659 171.672 84.4471 171.675 85.1613L171.685 87.8903C171.688 88.6045 172.269 89.1812 172.982 89.1785L176.152 89.1663C176.865 89.1636 177.442 88.5824 177.439 87.8682L177.428 85.1392C177.426 84.425 176.845 83.8483 176.132 83.851Z" fill="#E4D0C0"/>
<path d="M186.509 83.8111L183.339 83.8233C182.626 83.826 182.05 84.4072 182.052 85.1214L182.063 87.8504C182.066 88.5646 182.646 89.1413 183.36 89.1386L186.529 89.1264C187.243 89.1236 187.819 88.5425 187.816 87.8283L187.806 85.0993C187.803 84.3851 187.223 83.8084 186.509 83.8111Z" fill="#E4D0C0"/>
<path d="M196.887 83.7712L193.717 83.7834C193.003 83.7861 192.427 84.3673 192.43 85.0815L192.44 87.8105C192.443 88.5247 193.024 89.1014 193.737 89.0987L196.907 89.0865C197.621 89.0837 198.197 88.5026 198.194 87.7884L198.184 85.0593C198.181 84.3452 197.6 83.7684 196.887 83.7712Z" fill="#E4D0C0"/>
<path d="M207.229 83.7314L204.059 83.7436C203.345 83.7463 202.769 84.3275 202.772 85.0417L202.782 87.7707C202.785 88.4849 203.366 89.0616 204.079 89.0589L207.249 89.0467C207.962 89.0439 208.539 88.4628 208.536 87.7486L208.525 85.0195C208.523 84.3054 207.942 83.7286 207.229 83.7314Z" fill="#E4D0C0"/>
<path d="M166.426 86.8472C166.391 86.8414 166.359 86.8233 166.336 86.796C166.313 86.7688 166.3 86.7342 166.3 86.6985C166.3 86.6627 166.313 86.6281 166.336 86.6009C166.359 86.5736 166.391 86.5555 166.426 86.5497L220.154 86.3395C220.189 86.3453 220.221 86.3634 220.244 86.3906C220.267 86.4179 220.28 86.4525 220.28 86.4882C220.28 86.524 220.267 86.5586 220.244 86.5858C220.221 86.6131 220.189 86.6312 220.154 86.637L166.426 86.8472Z" fill="#F6EEE8"/>
<path d="M205.715 109.061C205.676 109.06 205.639 109.044 205.612 109.016C205.585 108.989 205.569 108.952 205.568 108.914L205.512 86.5457C205.512 86.5064 205.528 86.4687 205.555 86.4405C205.583 86.4124 205.62 86.396 205.659 86.395L220.154 86.3395C220.189 86.3453 220.221 86.3634 220.244 86.3906C220.267 86.4179 220.28 86.4525 220.28 86.4882C220.28 86.524 220.267 86.5586 220.244 86.5858C220.221 86.6131 220.189 86.6312 220.154 86.637L205.806 86.6925L205.861 108.906C205.861 108.945 205.846 108.983 205.818 109.011C205.791 109.039 205.754 109.056 205.715 109.057V109.061Z" fill="#F6EEE8"/>
<path d="M164.936 182.587H161.766C161.053 182.587 160.475 183.166 160.475 183.88V186.609C160.475 187.323 161.053 187.902 161.766 187.902H164.936C165.65 187.902 166.228 187.323 166.228 186.609V183.88C166.228 183.166 165.65 182.587 164.936 182.587Z" fill="#E4D0C0"/>
<path d="M175.314 182.587H172.144C171.431 182.587 170.853 183.166 170.853 183.88V186.609C170.853 187.323 171.431 187.902 172.144 187.902H175.314C176.028 187.902 176.606 187.323 176.606 186.609V183.88C176.606 183.166 176.028 182.587 175.314 182.587Z" fill="#E4D0C0"/>
<path d="M185.692 182.587H182.522C181.809 182.587 181.23 183.166 181.23 183.88V186.609C181.23 187.323 181.809 187.902 182.522 187.902H185.692C186.405 187.902 186.984 187.323 186.984 186.609V183.88C186.984 183.166 186.405 182.587 185.692 182.587Z" fill="#E4D0C0"/>
<path d="M208.944 185.399H155.216V207.918H208.944V185.399Z" fill="#E4D0C0"/>
<path d="M208.948 185.546H155.217C155.181 185.54 155.149 185.522 155.126 185.495C155.103 185.467 155.09 185.433 155.09 185.397C155.09 185.361 155.103 185.327 155.126 185.299C155.149 185.272 155.181 185.254 155.217 185.248H208.948C208.987 185.248 209.025 185.264 209.053 185.292C209.081 185.32 209.097 185.358 209.097 185.397C209.097 185.436 209.081 185.474 209.053 185.502C209.025 185.53 208.987 185.546 208.948 185.546Z" fill="#F6EEE8"/>
<path d="M208.948 185.399H194.453V207.918H208.948V185.399Z" fill="#E4D0C0"/>
<path d="M194.453 208.049C194.414 208.048 194.378 208.032 194.35 208.005C194.323 207.977 194.307 207.941 194.306 207.902V185.399C194.312 185.364 194.33 185.332 194.357 185.309C194.385 185.285 194.419 185.273 194.455 185.273C194.491 185.273 194.525 185.285 194.552 185.309C194.58 185.332 194.598 185.364 194.604 185.399V207.918C194.599 207.954 194.581 207.988 194.553 208.012C194.525 208.036 194.49 208.049 194.453 208.049Z" fill="#F6EEE8"/>
<path d="M63.8885 207.914C63.8885 207.914 69.967 205.347 69.1745 193.447C68.9467 190.186 68.1515 186.99 66.8247 184.003C66.6108 183.515 66.3928 183.047 66.167 182.603C65.6852 181.651 65.1562 180.724 64.5819 179.826C63.7744 178.532 62.8457 177.318 61.8082 176.2H47.7889C46.8815 177.173 46.0621 178.224 45.34 179.342C44.4664 180.652 43.6941 182.027 43.0299 183.455C41.9676 185.726 41.207 188.127 40.7673 190.595C40.6014 191.536 40.4863 192.486 40.4226 193.439C39.6301 205.339 45.7086 207.906 45.7086 207.906L63.8885 207.914Z" fill="white"/>
<path d="M52.4529 184.923C49.2462 184.971 46.0506 184.534 42.9746 183.626C42.922 183.61 42.8779 183.574 42.8519 183.526C42.8259 183.477 42.8201 183.421 42.8359 183.368C42.8516 183.316 42.8876 183.271 42.9359 183.245C42.9842 183.219 43.0409 183.214 43.0934 183.229C46.0178 184.161 49.6434 184.598 53.5822 184.495C54.3747 184.495 55.1672 184.431 55.9993 184.364C59.4314 184.077 62.8213 183.412 66.1076 182.38C66.1602 182.365 66.2168 182.37 66.2651 182.396C66.3134 182.422 66.3494 182.467 66.3652 182.519C66.381 182.572 66.3752 182.629 66.3492 182.677C66.3232 182.725 66.2791 182.761 66.2265 182.777C62.9112 183.812 59.492 184.477 56.031 184.76C55.2068 184.828 54.3866 184.871 53.5901 184.891C53.2071 184.912 52.828 184.923 52.4529 184.923Z" fill="#F6EEE8"/>
<path d="M42.095 190.818C41.6512 190.818 41.2047 190.818 40.7556 190.818C40.7296 190.817 40.704 190.811 40.6801 190.801C40.6563 190.791 40.6347 190.775 40.6167 190.757C40.5987 190.738 40.5845 190.716 40.575 190.691C40.5656 190.667 40.561 190.641 40.5615 190.615C40.5603 190.589 40.5647 190.562 40.5745 190.538C40.5844 190.513 40.5994 190.491 40.6185 190.472C40.6376 190.454 40.6605 190.44 40.6855 190.431C40.7105 190.422 40.7371 190.419 40.7636 190.421C45.0515 190.536 49.3377 190.136 53.5307 189.231C54.3708 189.048 55.1871 188.834 55.9479 188.636C60.1125 187.493 63.8293 185.859 66.6981 183.876C66.7413 183.849 66.793 183.84 66.8427 183.85C66.8924 183.86 66.9363 183.889 66.9653 183.931C66.9943 183.973 67.0061 184.024 66.9984 184.074C66.9908 184.125 66.9641 184.17 66.924 184.201C64.0195 186.204 60.2591 187.874 56.0549 189.029C55.2861 189.243 54.4699 189.425 53.614 189.632C49.8282 190.441 45.9661 190.839 42.095 190.818Z" fill="#F6EEE8"/>
<path d="M70.4862 158.727C71.2787 159.521 75.5899 156.819 73.775 155.256C71.9602 153.694 69.4361 157.712 70.4862 158.727Z" fill="#4B764A"/>
<path d="M69.123 161.147C69.967 159.957 69.44 156.109 67.4746 157.037C65.3071 158.069 68.279 162.345 69.123 161.147Z" fill="#4B764A"/>
<path d="M65.9888 165.605C67.1221 164.213 65.6798 160.258 64.1938 160.627C61.8718 161.214 64.9705 166.859 65.9888 165.605Z" fill="#4B764A"/>
<path d="M51.9773 150.477C52.2467 149.624 49.0807 146.066 48.0742 147.069C46.2039 148.945 50.9035 153.844 51.9773 150.477Z" fill="#4B764A"/>
<path d="M69.0755 161.242C69.7293 159.691 72.5189 158.235 73.2995 160.195C74.1039 162.214 68.5207 162.551 69.0755 161.242Z" fill="#4B764A"/>
<path d="M66.4524 165.066C67.1419 163.769 71.4491 163.225 70.8111 165.169C70.3158 166.7 65.4221 167.01 66.4524 165.066Z" fill="#4B764A"/>
<path d="M63.8887 168.418C64.5425 167.101 69.4797 167.228 68.8101 169.164C67.9859 171.512 63.1318 169.925 63.8887 168.418Z" fill="#4B764A"/>
<path d="M61.9628 171.226C63.0406 170.231 66.8525 172.559 65.529 174.126C63.944 176.03 60.7185 172.349 61.9628 171.226Z" fill="#4B764A"/>
<path d="M60.1124 175.379C60.79 173.713 66.3097 175.689 65.0774 177.561C63.7103 179.639 59.4784 176.93 60.1124 175.379Z" fill="#4B764A"/>
<path d="M51.6802 142.678C51.7635 141.091 49.3741 138.101 47.9159 138.957C45.1263 140.615 51.5574 145.082 51.6802 142.678Z" fill="#4B764A"/>
<path d="M51.4623 137.204C52.029 135.792 48.9739 131.083 47.8168 132.571C46.3626 134.435 50.8878 138.632 51.4623 137.204Z" fill="#4B764A"/>
<path d="M52.746 156.74C52.7698 155.474 49.366 153.21 48.4705 153.876C45.8116 155.859 52.6826 159.79 52.746 156.74Z" fill="#4B764A"/>
<path d="M53.6931 161.639C53.6952 161.648 53.6952 161.657 53.6931 161.667C53.6261 161.846 53.5112 162.003 53.361 162.121C53.2107 162.24 53.0309 162.314 52.8411 162.337C51.165 162.761 47.7612 161.643 48.942 159.782C49.5443 158.834 51.3195 159.318 52.5083 160.104C52.9565 160.365 53.3345 160.731 53.6098 161.171C53.6931 161.312 53.7226 161.478 53.6931 161.639Z" fill="#4B764A"/>
<path d="M55.7814 151.841C55.6093 152.122 55.4131 152.387 55.195 152.634C54.8107 153.075 54.3665 153.46 53.8755 153.777C53.1622 154.229 52.5124 154.356 52.334 153.848C51.9735 152.825 53.2137 149.715 54.6759 149.386C54.8938 149.343 55.1191 149.361 55.3282 149.435C55.5373 149.51 55.7226 149.639 55.8646 149.81C56.3798 150.326 56.2292 151.091 55.7814 151.841Z" fill="#4B764A"/>
<path d="M57.6794 158.937C57.5429 159.56 57.2128 160.124 56.7363 160.548C55.6625 161.631 54.026 162.38 53.6931 161.643C53.6931 161.615 53.6931 161.587 53.6654 161.555C53.6333 161.425 53.6121 161.292 53.602 161.159C53.5654 160.521 53.7023 159.885 53.9982 159.318C54.1924 158.919 54.4493 158.553 54.7591 158.235C54.8423 158.152 54.9255 158.073 55.0127 158.001C55.7814 157.359 56.7205 157.208 57.4417 158.049C57.5547 158.179 57.6325 158.336 57.6675 158.505C57.6993 158.647 57.7034 158.794 57.6794 158.937Z" fill="#4B764A"/>
<path d="M51.8348 148.672C51.5891 145.895 53.6853 142.472 54.7274 143.951C56.3124 146.2 51.9656 150.155 51.8348 148.672Z" fill="#4B764A"/>
<path d="M62.9694 169.636C62.3195 170.175 61.2061 169.386 60.6236 168.346C60.1164 167.45 60.0054 166.363 60.9128 165.788C61.0391 165.7 61.1853 165.645 61.3382 165.627C61.491 165.61 61.6458 165.631 61.7885 165.689C62.9971 166.153 63.8253 168.922 62.9694 169.636Z" fill="#4B764A"/>
<path d="M55.4127 167.256C55.2186 169.14 49.7741 168.398 50.4121 165.669C50.6696 164.574 51.9099 164.534 53.0947 164.975C54.1606 165.371 55.1829 166.165 55.381 166.902C55.4134 167.017 55.4242 167.137 55.4127 167.256Z" fill="#4B764A"/>
<path d="M60.1757 175.042C59.6804 175.439 58.8919 175.014 58.3371 174.304C57.6595 173.436 57.3306 172.17 58.3094 171.528C58.983 171.095 59.6408 171.639 60.0529 172.428C60.5363 173.368 60.6908 174.614 60.1757 175.042Z" fill="#4B764A"/>
<path d="M51.8071 119.445C52.5797 117.644 50.0437 113.099 48.6569 114.118C46.2397 115.931 51.1374 121 51.8071 119.445Z" fill="#4B764A"/>
<path d="M51.3196 129.663C51.9496 127.763 48.3715 124.673 47.3293 125.792C45.3917 127.874 50.9709 130.699 51.3196 129.663Z" fill="#4B764A"/>
<path d="M51.482 124.09C51.7951 122.206 50.1308 118.981 48.8034 119.727C46.6399 120.968 51.2086 125.681 51.482 124.09Z" fill="#4B764A"/>
<path d="M51.8069 119.445C51.5968 118.001 54.1566 114.82 55.2899 116.248C56.4232 117.676 52.0723 121.278 51.8069 119.445Z" fill="#4B764A"/>
<path d="M51.482 129.318C51.2204 127.843 53.8595 123.206 55.2027 124.757C56.546 126.308 52.001 132.182 51.482 129.318Z" fill="#4B764A"/>
<path d="M51.4819 124.09C51.4819 122.504 53.5266 118.961 54.7193 120.453C56.229 122.345 51.5017 126.101 51.4819 124.09Z" fill="#4B764A"/>
<path d="M51.5534 134.959C51.0779 133.285 55.1196 129.279 56.2093 131.611C57.2277 133.793 52.1041 136.879 51.5534 134.959Z" fill="#4B764A"/>
<path d="M51.7277 141.536C51.0778 140.238 52.8927 135.284 54.6679 137.172C55.9042 138.521 52.4449 142.972 51.7277 141.536Z" fill="#4B764A"/>
<path d="M60.0529 172.452C59.7264 173.259 59.1162 173.92 58.3371 174.308C57.6595 173.439 57.3306 172.174 58.3094 171.532C58.983 171.115 59.6408 171.658 60.0529 172.452Z" fill="black"/>
<path d="M60.6236 168.346C60.1164 167.45 60.0054 166.363 60.9128 165.788C61.0391 165.7 61.1853 165.645 61.3382 165.627C61.491 165.61 61.6458 165.631 61.7885 165.689C62.0382 166.906 61.2219 167.843 60.6236 168.346Z" fill="black"/>
<path d="M55.3811 166.906L53.9507 167.985C53.9507 167.985 51.5732 166.712 53.0948 164.979C54.1607 165.375 55.1711 166.161 55.3811 166.906Z" fill="black"/>
<path d="M57.6795 158.937C56.6546 159.057 55.6202 158.814 54.7551 158.251C54.8383 158.168 54.9216 158.089 55.0087 158.017C55.7775 157.375 56.7166 157.224 57.4377 158.065C57.5508 158.195 57.6286 158.352 57.6636 158.521C57.6947 158.658 57.7001 158.799 57.6795 158.937Z" fill="black"/>
<path d="M55.195 152.634C54.7158 151.625 54.5357 150.499 54.6759 149.39C54.8938 149.347 55.1191 149.365 55.3282 149.439C55.5373 149.514 55.7226 149.643 55.8646 149.814C56.562 150.508 56.035 151.678 55.195 152.634Z" fill="black"/>
<path d="M55.29 167.244C55.26 167.243 55.2308 167.234 55.2061 167.217C55.1814 167.2 55.1623 167.176 55.1513 167.148C52.7738 160.865 51.5137 150.687 51.5137 143.876C51.5137 142.028 51.4582 139.782 51.4028 137.41C51.2561 131.318 51.0897 124.408 51.6603 119.433C51.6688 119.397 51.6902 119.366 51.7206 119.344C51.7509 119.323 51.7881 119.314 51.8249 119.318C51.8617 119.323 51.8956 119.34 51.92 119.368C51.9445 119.396 51.9578 119.432 51.9575 119.469C51.3869 124.423 51.5613 131.322 51.6999 137.406C51.7594 139.786 51.8109 142.028 51.8109 143.88C51.8109 150.663 53.0551 160.798 55.4287 167.045C55.4416 167.082 55.4398 167.123 55.4235 167.158C55.4072 167.194 55.3778 167.221 55.3415 167.236L55.29 167.244Z" fill="black"/>
<path d="M56.7047 173.789C56.2252 174.852 55.1197 174.606 54.1568 173.916C53.1939 173.225 52.4648 172.206 52.4727 171.488C52.4702 171.31 52.533 171.138 52.6491 171.003C52.7653 170.869 52.9267 170.781 53.1028 170.758C53.2208 170.729 53.3418 170.715 53.4634 170.714C54.1763 170.746 54.8646 170.985 55.4446 171.401C56.3877 172.023 57.0732 172.975 56.7047 173.789Z" fill="#8EBF8C"/>
<path d="M57.077 168.485C57.083 168.55 57.083 168.615 57.077 168.68C57.0544 168.878 56.9925 169.069 56.8947 169.243C56.8302 169.358 56.7349 169.454 56.6195 169.518C56.504 169.583 56.373 169.614 56.2409 169.608C55.7217 169.566 55.2271 169.369 54.8223 169.041C54.5096 168.819 54.2226 168.564 53.9664 168.279C53.7148 168.006 53.5027 167.699 53.3364 167.367C52.9401 166.573 53.0075 165.812 53.9426 165.407C55.1908 164.864 57.0968 166.903 57.077 168.485Z" fill="#8EBF8C"/>
<path d="M58.8047 151.976C59.2921 150.711 57.0692 147.291 55.6981 148.434C53.9824 149.874 58.2143 153.515 58.8047 151.976Z" fill="#8EBF8C"/>
<path d="M57.3703 166.553C57.9528 165.11 62.367 163.971 61.9113 166.085C61.5468 167.747 56.4985 168.715 57.3703 166.553Z" fill="#8EBF8C"/>
<path d="M56.7562 172.468C56.99 170.798 61.5944 168.33 61.6657 170.671C61.7331 172.511 56.4154 174.967 56.7562 172.468Z" fill="#8EBF8C"/>
<path d="M61.8321 133.523C62.9416 133.662 64.2848 129.06 62.688 128.818C60.4095 128.469 60.5165 133.36 61.8321 133.523Z" fill="#8EBF8C"/>
<path d="M60.8017 137.743C61.5942 136.593 60.5996 132.94 59.1414 133.527C57.1523 134.332 59.9934 138.89 60.8017 137.743Z" fill="#8EBF8C"/>
<path d="M59.5575 143.344C60.6908 141.952 59.2485 137.997 57.7625 138.366C55.4365 138.953 58.5352 144.582 59.5575 143.344Z" fill="#8EBF8C"/>
<path d="M59.1969 147.279C59.7636 145.867 57.6317 142.916 56.5064 143.626C54.4142 144.919 58.6224 148.715 59.1969 147.279Z" fill="#8EBF8C"/>
<path d="M58.2065 158.037C58.686 156.486 56.0786 153.939 54.7789 154.61C52.4371 155.816 57.6121 159.965 58.2065 158.037Z" fill="#8EBF8C"/>
<path d="M57.5487 164.019C58.0282 162.468 55.5159 159.473 54.1687 160.294C51.6604 161.825 56.9583 165.95 57.5487 164.019Z" fill="#8EBF8C"/>
<path d="M61.4477 135.125C61.6656 133.686 64.4948 131.928 65.1685 133.626C65.8421 135.324 61.1703 136.958 61.4477 135.125Z" fill="#8EBF8C"/>
<path d="M60.2549 140.707C60.4927 139.068 63.3893 136.649 64.0629 138.327C64.7365 140.005 59.9617 142.698 60.2549 140.707Z" fill="#8EBF8C"/>
<path d="M58.8522 151.226C58.3965 149.929 61.7052 146.696 62.5611 148.406C63.6032 150.488 59.3752 152.714 58.8522 151.226Z" fill="#8EBF8C"/>
<path d="M59.5854 144.709C59.4744 143.412 63.2705 141.234 63.6509 143.007C64.1145 145.161 59.7122 146.196 59.5854 144.709Z" fill="#8EBF8C"/>
<path d="M58.5194 155.907C57.8774 154.586 61.2099 151.607 62.3273 153.317C63.6904 155.403 59.2564 157.422 58.5194 155.907Z" fill="#8EBF8C"/>
<path d="M57.8775 162.694C57.2792 161.46 60.3897 158.672 61.4438 160.274C62.6999 162.222 58.563 164.11 57.8775 162.694Z" fill="#8EBF8C"/>
<path d="M57.0612 168.676C57.0387 168.874 56.9767 169.065 56.879 169.239C56.8145 169.354 56.7192 169.45 56.6037 169.514C56.4883 169.579 56.3572 169.61 56.2252 169.604C55.7059 169.562 55.2114 169.365 54.8066 169.037C54.4939 168.815 54.2068 168.56 53.9507 168.275C54.5569 167.716 55.8329 167.311 57.0612 168.676Z" fill="black"/>
<path d="M55.4565 171.397C55.3812 172.285 54.7195 173.245 54.1568 173.912C53.2454 173.257 52.4648 172.202 52.4727 171.484C52.7845 171.203 53.1155 170.945 53.4633 170.71C54.1803 170.74 54.8731 170.978 55.4565 171.397Z" fill="black"/>
<path d="M48.8311 168.053C47.5433 166.113 42.0196 165.391 41.3024 167.462C40.3514 170.238 49.7425 169.398 48.8311 168.053Z" fill="#8EBF8C"/>
<path d="M41.0211 158.66C40.3871 157.47 35.5053 157.866 35.0774 160.353C34.6256 163.083 42.1821 160.845 41.0211 158.66Z" fill="#8EBF8C"/>
<path d="M52.1397 175.855C53.0115 173.678 58.7056 173.987 57.8021 176.296C56.8987 178.604 51.684 176.99 52.1397 175.855Z" fill="#8EBF8C"/>
<path d="M44.7617 162.92C44.0286 161.333 38.1047 161.758 36.9437 164.134C34.9347 168.239 45.3402 164.165 44.7617 162.92Z" fill="#8EBF8C"/>
<path d="M37.4825 154.38C37.1219 152.69 32.6324 153.075 31.6695 154.883C29.7358 158.509 37.8312 156.034 37.4825 154.38Z" fill="#8EBF8C"/>
<path d="M41.77 159.528C40.288 157.791 42.713 150.536 45.1539 152.345C47.5948 154.154 42.5149 160.401 41.77 159.528Z" fill="#8EBF8C"/>
<path d="M44.9638 163.154C44.1316 160.774 47.5909 156.232 49.1601 158.2C50.4162 159.786 45.4868 164.642 44.9638 163.154Z" fill="#8EBF8C"/>
<path d="M49.568 169.175C48.3357 167.87 49.6829 162.142 51.6325 163.027C53.7524 163.975 50.6498 170.306 49.568 169.175Z" fill="#8EBF8C"/>
<path d="M34.6969 149.584C34.257 148.219 30.6432 148.112 29.6566 149.259C27.7664 151.46 35.311 151.476 34.6969 149.584Z" fill="#8EBF8C"/>
<path d="M32.8821 145.375C32.8227 144.388 30.0212 141.631 29.1574 142.131C27.0374 143.392 33.0683 148.481 32.8821 145.375Z" fill="#8EBF8C"/>
<path d="M32.3312 142.123C33.4328 141.504 33.3615 136.121 31.6655 136.423C29.3395 136.835 30.4807 143.162 32.3312 142.123Z" fill="#8EBF8C"/>
<path d="M35.3229 150.738C34.3719 149.513 36.5117 144.15 38.1838 145.701C39.7609 147.152 36.6503 152.456 35.3229 150.738Z" fill="#8EBF8C"/>
<path d="M33.3497 146.403C32.1887 145.062 33.8331 140.937 35.0337 141.805C36.9437 143.213 34.2809 147.478 33.3497 146.403Z" fill="#8EBF8C"/>
<path d="M37.7005 154.447C36.8525 152.504 39.9512 148.2 41.1954 149.715C42.6972 151.544 38.2672 155.748 37.7005 154.447Z" fill="#8EBF8C"/>
<path d="M51.6048 173.582C50.836 169.969 56.0111 167.081 56.649 169.148C57.2672 171.135 51.8108 174.522 51.6048 173.582Z" fill="#8EBF8C"/>
<path d="M51.9457 174.84C51.7634 173.102 47.4522 170.707 46.311 172.063C44.1911 174.626 52.1121 176.407 51.9457 174.84Z" fill="#8EBF8C"/>
<path d="M59.8865 176.315H59.8508C59.8126 176.305 59.78 176.28 59.76 176.246C59.74 176.212 59.7342 176.171 59.7438 176.133C60.7582 172.166 62.7236 169.632 65.0021 166.696C66.7773 164.407 68.7902 161.817 70.6209 158.116C70.642 158.088 70.6722 158.068 70.7063 158.06C70.7405 158.052 70.7764 158.056 70.8079 158.072C70.8393 158.087 70.8644 158.113 70.8788 158.145C70.8931 158.177 70.8958 158.213 70.8864 158.247C69.0399 161.976 67.019 164.594 65.2359 166.879C62.9772 169.786 61.0316 172.301 60.0291 176.204C60.0212 176.236 60.0028 176.264 59.9769 176.284C59.9511 176.305 59.9192 176.315 59.8865 176.315Z" fill="black"/>
<path d="M56.6808 174.729C56.6415 174.728 56.6043 174.711 56.5769 174.683C56.5495 174.655 56.5342 174.617 56.5342 174.578C56.6293 171.068 57.0493 167.323 57.5407 162.991C57.9726 159.16 58.4639 154.82 58.8364 149.699C59.3872 142.099 62.1253 131.69 62.153 131.587C62.163 131.549 62.1876 131.517 62.2214 131.497C62.2552 131.478 62.2955 131.472 62.3333 131.482C62.3711 131.492 62.4034 131.517 62.4231 131.551C62.4428 131.584 62.4483 131.625 62.4383 131.663C62.4106 131.766 59.6646 142.151 59.1336 149.723C58.7611 154.848 58.2698 159.195 57.8378 163.027C57.3505 167.355 56.9265 171.091 56.8353 174.59C56.8323 174.628 56.8146 174.664 56.7858 174.69C56.757 174.716 56.7194 174.73 56.6808 174.729Z" fill="black"/>
<path d="M52.1873 176.315C52.1519 176.315 52.1177 176.302 52.0909 176.279C52.0641 176.255 52.0463 176.224 52.0407 176.188C51.2482 170.445 47.4204 166.117 43.3549 161.536C38.4374 155.982 32.8622 149.703 31.5189 139.6C31.5163 139.581 31.5175 139.561 31.5225 139.542C31.5275 139.523 31.5361 139.506 31.5478 139.49C31.5596 139.475 31.5743 139.462 31.5911 139.452C31.6079 139.442 31.6265 139.436 31.6457 139.433C31.665 139.431 31.6845 139.432 31.7033 139.437C31.7221 139.442 31.7397 139.451 31.7552 139.462C31.7706 139.474 31.7836 139.489 31.7934 139.506C31.8032 139.522 31.8095 139.541 31.8121 139.56C33.1396 149.576 38.6831 155.824 43.5728 161.341C47.6661 165.958 51.5335 170.318 52.33 176.153C52.3327 176.172 52.3317 176.192 52.3268 176.211C52.3219 176.229 52.3133 176.247 52.3015 176.263C52.2897 176.278 52.2749 176.291 52.258 176.301C52.2411 176.311 52.2225 176.317 52.2032 176.319L52.1873 176.315Z" fill="black"/>
<path d="M60.1361 207.914C58.5511 207.914 58.0162 206.652 58.2777 204.455C58.5392 202.257 58.7056 199.298 58.5392 198.584C58.3728 197.87 64.166 197.989 64.166 197.989C64.166 197.989 65.0773 207.914 60.1361 207.914Z" fill="black"/>
<path d="M234.129 126.478C234.296 128.68 237.093 128.636 237.406 127.172C238.29 128.561 240.287 127.72 240.208 126.173C241.024 126.772 242.538 125.855 241.472 124.765C244.245 123.384 242.054 118.39 239.546 119.318C239.724 116.7 234.878 116.569 235.14 119.402C234.743 117.45 231.847 118.628 232.901 120.377L234.129 126.478Z" fill="black"/>
<path d="M181.868 175.784C181.496 175.891 179.415 177.652 178.143 178.826C175.806 180.984 175.148 179.695 175.984 178.624C178.021 176.01 180.783 172.392 185.026 169.104C186.286 168.124 190.178 165.907 193.807 164.344C209.114 157.839 209.78 157.537 212.903 155.046C214.852 153.491 221.442 147.033 221.442 147.033L222.52 146.875L229.997 152.868L225.638 158.89L214.345 167.442C214.345 167.442 206.57 170.282 202.002 172.484C197.433 174.685 195.697 175.391 195.697 175.391C195.697 175.391 192.195 178.065 190.594 179.132C188.993 180.199 186.782 180.687 186.362 180.401C184.135 178.89 183.168 178.124 183.168 178.124C182.062 178.144 181.306 177.545 181.868 175.784Z" fill="#C15D31"/>
<path d="M184.959 179.247C184.539 180.48 185.422 181.048 186.52 180.576C187.903 179.981 189.108 178.025 188.898 177.37C188.688 176.716 187.523 176.803 186.338 177.454C185.679 177.867 185.19 178.503 184.959 179.247Z" fill="#C15D31"/>
<path d="M185.787 180.889C185.504 180.9 185.228 180.802 185.014 180.615C184.682 180.306 184.618 179.822 184.816 179.199C185.059 178.422 185.57 177.757 186.259 177.323C187.162 176.827 188.05 176.649 188.573 176.851C188.679 176.889 188.776 176.951 188.856 177.032C188.935 177.114 188.996 177.211 189.032 177.319C189.29 178.112 187.962 180.096 186.58 180.706C186.33 180.82 186.061 180.882 185.787 180.889ZM185.098 179.302C184.931 179.786 184.975 180.179 185.216 180.405C185.4 180.527 185.613 180.595 185.832 180.603C186.052 180.611 186.27 180.557 186.461 180.449C187.836 179.858 188.925 177.958 188.751 177.426C188.728 177.359 188.69 177.299 188.64 177.249C188.59 177.2 188.529 177.162 188.462 177.14C188.026 176.97 187.218 177.14 186.401 177.597C185.778 177.994 185.316 178.6 185.098 179.306V179.302Z" fill="black"/>
<path d="M189.421 197.196C189.468 197.664 190.213 197.954 191.093 197.124C193.098 195.284 195.804 193.896 197.064 193.289C198.324 192.682 200.234 192.099 203.246 190.683C206.257 189.267 221.172 182.138 221.335 182.138C221.497 182.138 217.511 171.032 217.511 171.032C214.341 173.015 207.521 176.914 196.308 182.293C194.992 182.924 188.719 183.951 186.56 184.276C185.276 184.479 185.117 184.871 185.153 185.336L190.162 185.383C188.548 186.501 187.059 187.79 185.72 189.227C183.105 191.92 182.066 194.078 182.55 194.562C183.033 195.046 184.376 193.547 185.748 192.277C187.119 191.008 188.125 190.294 188.276 190.345C188.343 190.373 187.681 191.412 187.408 191.996C186.71 193.471 186.128 194.59 185.985 196.24C185.843 197.89 187.059 197.557 187.388 197.005C187.582 197.815 188.541 198.255 189.421 197.196Z" fill="#C15D31"/>
<path d="M267.196 206.688C267.094 206.782 266.984 206.869 266.868 206.946C265.679 207.739 263.551 207.989 260.155 207.652C260.497 206.998 261.022 206.458 261.665 206.097L261.95 205.93C262.877 205.411 263.579 203.55 263.86 202.36C263.921 202.111 263.964 201.858 263.991 201.603C264.058 200.675 264.316 198.235 263.218 196.843C262.711 196.2 260.785 196.121 260.785 196.121L260.27 187.065L265.516 185.899C266.277 185.935 267.196 186.018 268.139 186.145C270.652 186.478 273.342 187.125 273.687 188.073C274.258 189.762 268.298 205.696 267.196 206.688Z" fill="#C15D31"/>
<path d="M267.196 206.688C267.093 206.782 266.984 206.869 266.867 206.946C265.679 207.767 263.527 208.136 260.095 207.799C260.112 207.749 260.132 207.7 260.155 207.652C260.497 206.999 261.022 206.458 261.665 206.097L261.95 205.931C262.877 205.411 263.578 203.551 263.86 202.361C264.874 202.186 266.237 201.892 266.978 201.464C266.978 201.464 268.785 195.812 268.785 195.232C268.785 194.764 268.167 188.628 268.139 186.153C270.652 186.486 273.342 187.132 273.687 188.081C274.257 189.762 268.298 205.696 267.196 206.688Z" fill="#F09400"/>
<path d="M262.224 187.632C262.45 190.099 262.763 194.681 262.45 196.291C262.137 197.902 259.581 202.075 245.918 204.832C232.255 207.589 226.811 207.918 226.811 207.918C226.811 207.918 218.363 209.584 215.411 204.832C212.344 199.889 213.061 193.856 226.193 187.057C238.809 180.528 248.696 178.037 248.696 178.037L262.224 187.632Z" fill="#5B77C9"/>
<path d="M253.815 207.914H226.87C227.036 207.481 227.769 206.637 230.781 205.728L231.145 205.621C233.523 204.943 235.163 204.431 236.297 203.959C237.604 203.428 238.226 202.971 238.46 202.428C238.619 202.059 236.332 199.873 233.309 197.739L248.937 196.597L250.348 199.497C251.033 200.154 251.615 200.911 252.075 201.742C252.23 202.015 252.369 202.293 252.499 202.571C253.25 204.26 253.696 206.069 253.815 207.914Z" fill="#C15D31"/>
<path d="M230.967 151.428L241.904 161.599L234.835 168.287C234.835 168.287 222.281 157.672 222.46 157.672C222.638 157.672 230.967 151.428 230.967 151.428Z" fill="#C15D31"/>
<path d="M225.657 159.04C225.63 159.04 225.604 159.032 225.581 159.017C225.557 159.002 225.539 158.982 225.527 158.957C225.514 158.933 225.509 158.905 225.511 158.878C225.513 158.851 225.523 158.825 225.539 158.802L229.339 153.578C229.364 153.552 229.397 153.536 229.434 153.533C229.47 153.53 229.506 153.54 229.535 153.561C229.564 153.582 229.585 153.613 229.593 153.648C229.602 153.684 229.597 153.721 229.58 153.753L225.78 158.977C225.766 158.997 225.748 159.013 225.727 159.024C225.705 159.035 225.682 159.041 225.657 159.04Z" fill="black"/>
<path d="M269.451 185.724C262.786 194.36 243.505 184.503 241.242 183.178C243.989 185.792 246.342 188.792 248.228 192.083C251.141 197.295 250.459 199.175 250.332 199.497L236.325 199.893C236.325 199.893 233.056 199.473 228.883 194.229C224.711 188.985 214.971 175.28 213.16 172.142C212.946 171.77 212.7 171.282 212.431 170.71C211.676 169.102 211.339 167.328 211.453 165.554C211.567 163.78 212.126 162.064 213.081 160.565C214.035 159.065 215.352 157.832 216.91 156.98C218.469 156.127 220.217 155.683 221.993 155.689C225.927 155.675 229.846 156.168 233.654 157.156L221.418 147.033C221.418 147.033 229.474 139.497 233.84 133.547H236.729C238.92 135.07 246.037 140.12 251.117 144.721C255.476 148.688 262.129 155.431 266.44 161.583C267.007 162.376 267.538 163.202 268.025 163.987C268.144 164.18 268.259 164.374 268.37 164.57C269.066 165.764 269.697 166.996 270.26 168.259C272.875 174.146 273.576 180.385 269.451 185.724Z" fill="#8EBF8C"/>
<path d="M232.413 145.403C232.52 143.789 233.44 137.553 233.44 137.553L230.416 134.657L228.728 133.039L228.645 132.96L232.699 128.993C233.887 131.298 236.752 133.582 236.752 133.582L232.413 145.403Z" fill="#C15D31"/>
<path d="M231.637 130.762C231.408 132.109 230.997 133.418 230.416 134.654L228.728 133.039L231.637 130.762Z" fill="black"/>
<path d="M234.474 126.696C234.047 127.694 233.515 128.643 232.889 129.529C232.774 129.695 232.659 129.854 232.54 130.012C231.708 131.159 230.736 132.197 229.648 133.102C227.27 134.848 223.308 133.237 223.827 128.62C224.14 125.875 225.332 122.753 227.147 120.929C228.288 119.782 229.671 119.148 231.237 119.429C231.915 119.565 232.562 119.827 233.142 120.203C235.579 121.794 235.496 124.293 234.474 126.696Z" fill="#C15D31"/>
<path d="M270.271 168.275L265.58 170.691L261.89 168.672L256.862 166.062C256.862 166.062 262.172 163.166 266.451 161.599C267.018 162.392 267.549 163.218 268.036 164.003C268.155 164.196 268.27 164.39 268.381 164.586C269.078 165.78 269.709 167.012 270.271 168.275Z" fill="#4B764A"/>
<path d="M269.451 185.724C262.786 194.36 243.505 184.503 241.242 183.178C243.989 185.792 246.342 188.792 248.228 192.083C251.141 197.295 250.459 199.175 250.332 199.497L236.325 199.893C236.325 199.893 233.056 199.473 228.883 194.229C224.711 188.985 214.971 175.28 213.16 172.142C212.946 171.77 212.7 171.282 212.431 170.711C211.676 169.102 211.339 167.328 211.453 165.554C211.567 163.78 212.126 162.064 213.081 160.565C214.035 159.066 215.352 157.832 216.91 156.98C218.469 156.127 220.217 155.683 221.993 155.689C225.927 155.675 229.846 156.168 233.654 157.156H233.678C254.485 162.087 263.203 165.859 263.203 165.859L268.037 164.019C268.156 164.212 268.271 164.406 268.382 164.602C272.36 171.452 274.452 179.243 269.451 185.724Z" fill="#5B77C9"/>
<path d="M125.803 198.56C125.363 199.75 122.514 200.266 117.085 197.315L120.334 193.42C120.334 193.42 126.845 195.712 125.803 198.56Z" fill="black"/>
<path d="M109.568 187.696C109.568 187.795 94.6337 207.926 94.6337 207.926C90.5959 208.176 73.5096 207.989 67.8472 208.053C62.1848 208.116 60.1362 207.926 60.1362 207.926C63.1239 206.827 62.5969 200.318 62.5969 200.318C58.1906 199.608 53.4356 199.639 52.9403 199.822L52.8095 199.877C52.231 200.155 51.6683 200.857 51.28 202.063C50.9752 202.959 50.7978 203.894 50.753 204.84C50.7094 205.823 50.6499 206.077 51.6802 206.7C52.7104 207.323 52.9521 207.946 52.9521 207.946H46.8776C46.2516 207.946 44.7973 206.01 44.6705 205.395C44.5437 204.78 45.039 198.886 45.5106 193.638C45.9068 189.473 46.1604 185.661 46.6478 185.264C47.3333 184.709 49.1957 185.24 52.4093 186.018C55.377 186.755 58.3823 187.331 61.4121 187.743L61.8083 187.795C70.3198 188.882 88.8484 190.024 88.8484 190.024C88.8484 190.024 90.5404 169.552 90.7306 159.628C90.9921 145.99 92.0105 142.274 92.8783 138.374L110.147 156.55C110.511 160.516 109.568 187.597 109.568 187.696Z" fill="#F09400"/>
<path d="M123.746 207.914H94.6335C95.7589 205.47 97.0546 203.027 98.3662 200.73C100.858 196.417 103.577 192.239 106.513 188.215C112.596 183.241 122.09 192.353 122.09 192.353C121.983 192.511 116.277 199.068 114.351 201.849C113.103 203.638 119.815 206.307 121.741 206.462C123.029 206.565 123.75 206.72 123.746 207.914Z" fill="#FFDCAE"/>
<path d="M113.447 138.009C113.447 138.009 114.925 140.342 115.472 140.683C115.722 140.841 137.488 145.423 146.245 147.525C156.183 149.905 160.403 157.839 149.463 169.862C144.735 175.05 132.82 187.906 125.803 198.56C125.454 197.212 123.156 196.2 120.362 194.376C116.003 191.539 110.06 187.827 106.517 188.199C106.517 188.199 113.784 177.95 127.867 162.888C127.867 162.888 110.396 160.175 104.488 159.342C97.6886 158.382 91.5507 154.665 92.1491 144.269C92.3702 140.54 93.0353 136.852 94.1303 133.281L113.447 138.009Z" fill="#F09400"/>
<path d="M104.492 159.489H104.472C101.762 159.092 92.8068 157.026 91.3208 146.319C91.3181 146.3 91.3191 146.281 91.324 146.262C91.3289 146.243 91.3375 146.225 91.3493 146.21C91.3611 146.194 91.3759 146.181 91.3928 146.171C91.4097 146.162 91.4283 146.155 91.4476 146.153C91.4669 146.15 91.4866 146.151 91.5054 146.156C91.5243 146.161 91.542 146.17 91.5575 146.181C91.573 146.193 91.5859 146.208 91.5957 146.225C91.6054 146.242 91.6116 146.26 91.6141 146.28C93.0723 156.78 101.857 158.822 104.516 159.195C104.555 159.198 104.592 159.216 104.618 159.246C104.644 159.276 104.657 159.314 104.655 159.354C104.652 159.393 104.634 159.43 104.604 159.456C104.574 159.482 104.536 159.495 104.496 159.493L104.492 159.489Z" fill="black"/>
<path d="M122.855 105.629C122.855 105.629 126.5 111.762 131.041 116.105C135.582 120.449 142.929 126.629 145.354 128.085L144.538 132.369C144.538 132.369 130.946 122.055 121.662 110.552C121.662 110.544 121.856 105.935 122.855 105.629Z" fill="#EA4338"/>
<path d="M153.319 124.852L150.176 124.44C149.469 124.348 148.82 124.847 148.728 125.555L148.374 128.261C148.281 128.969 148.779 129.618 149.487 129.711L152.63 130.123C153.337 130.215 153.986 129.717 154.078 129.008L154.432 126.302C154.525 125.594 154.027 124.945 153.319 124.852Z" fill="#E4D0C0"/>
<path d="M163.613 126.202L160.47 125.79C159.763 125.697 159.114 126.196 159.022 126.905L158.668 129.61C158.575 130.319 159.074 130.968 159.781 131.061L162.924 131.473C163.631 131.565 164.28 131.066 164.373 130.358L164.727 127.652C164.819 126.944 164.321 126.295 163.613 126.202Z" fill="#E4D0C0"/>
<path d="M173.903 127.552L170.76 127.14C170.053 127.047 169.404 127.546 169.312 128.254L168.958 130.96C168.865 131.668 169.364 132.318 170.071 132.41L173.214 132.822C173.921 132.915 174.57 132.416 174.663 131.708L175.017 129.002C175.109 128.294 174.611 127.645 173.903 127.552Z" fill="#E4D0C0"/>
<path d="M184.155 128.897L181.012 128.485C180.304 128.392 179.656 128.891 179.563 129.599L179.209 132.305C179.117 133.013 179.615 133.662 180.322 133.755L183.466 134.167C184.173 134.26 184.822 133.761 184.914 133.053L185.268 130.347C185.361 129.639 184.862 128.99 184.155 128.897Z" fill="#E4D0C0"/>
<path d="M196.594 133.362L143.321 126.379L140.4 148.707L193.673 155.69L196.594 133.362Z" fill="#E4D0C0"/>
<path d="M196.597 133.511L143.301 126.526C143.268 126.515 143.24 126.492 143.221 126.463C143.202 126.433 143.195 126.397 143.2 126.363C143.204 126.328 143.221 126.296 143.247 126.272C143.273 126.248 143.306 126.234 143.341 126.232L196.633 133.218C196.668 133.223 196.7 133.242 196.723 133.269C196.746 133.296 196.759 133.331 196.759 133.366C196.759 133.402 196.746 133.437 196.723 133.464C196.7 133.491 196.668 133.509 196.633 133.515L196.597 133.511Z" fill="#F6EEE8"/>
<path d="M161.124 152.599C162.024 153.313 163.003 153.233 163.355 152.559C163.446 152.384 164.12 153.21 164.865 153.043C165.82 152.833 164.31 150.663 164.635 150.548C165.206 150.318 166.549 153.202 167.571 152.999C168.701 152.777 166.945 149.255 166.945 149.255C167.068 148.605 167.043 147.936 166.872 147.298C166.701 146.659 166.389 146.067 165.959 145.566C164.013 143.186 158.826 140.52 156.754 139.87L152.859 148.854C154.665 149.586 156.328 150.631 157.772 151.94C160.269 154.165 160.97 152.912 161.124 152.599Z" fill="#FFDCAE"/>
<path d="M138.562 95.6334C138.483 98.5806 135.867 102.773 132.947 104.178C129.936 105.633 127.752 103.353 127.752 101.643C127.306 101.796 126.87 101.979 126.449 102.19C125.018 102.877 123.421 103.848 123.421 103.848L120.509 100.009C123.231 98.7948 128.275 96.2125 128.275 96.2125C128.327 95.3438 128.886 94.5386 129.658 94.4831C129.658 94.4831 131.402 91.2859 135.059 91.6707C138.716 92.0555 138.562 95.6334 138.562 95.6334Z" fill="#FFDCAE"/>
<path d="M94.1265 133.269C97.9344 117.053 107.417 107.704 112.77 104.003C116.78 101.226 122.042 98.9535 122.042 98.9535L124.978 104.078C124.978 104.078 123.021 105.439 122.855 105.633C122.688 105.828 122.688 109.679 122.799 109.997C122.91 110.314 129.413 117.64 134.477 122.158C139.541 126.677 149.93 134.352 152.989 135.732C155.339 136.792 157.416 138.509 158.192 140.246C158.192 140.246 156.06 146.01 153.738 149.469C153.738 149.469 151.412 150.381 148.757 148.529C146.103 146.676 136.077 139.981 132.321 137.172C127.895 133.856 123.271 128.989 119.486 125.578C119.486 125.578 114.169 136.895 113.364 138.144C112.707 137.997 94.1265 133.269 94.1265 133.269Z" fill="#EA4338"/>
<path d="M164.861 153.194C164.822 153.198 164.783 153.186 164.753 153.162C164.722 153.137 164.703 153.102 164.699 153.063C164.694 153.024 164.706 152.985 164.73 152.954C164.755 152.924 164.791 152.904 164.829 152.9C164.864 152.896 164.898 152.883 164.926 152.863C164.955 152.843 164.979 152.816 164.996 152.785C165.135 152.519 164.869 151.869 164.675 151.397C164.481 150.925 164.39 150.687 164.457 150.528C164.468 150.502 164.484 150.478 164.505 150.459C164.525 150.439 164.549 150.423 164.576 150.413C164.932 150.266 165.325 150.766 165.868 151.452C166.41 152.139 167.056 152.952 167.54 152.856C167.583 152.85 167.623 152.833 167.658 152.806C167.692 152.78 167.72 152.745 167.738 152.706C168.047 152.075 167.175 150.052 166.811 149.326C166.798 149.293 166.798 149.256 166.811 149.223C166.926 148.594 166.9 147.947 166.734 147.33C166.568 146.712 166.267 146.139 165.852 145.653C164.338 143.809 160.764 141.686 158.085 140.536C158.05 140.521 158.021 140.493 158.007 140.457C157.992 140.421 157.992 140.381 158.006 140.346L158.042 140.25C157.293 138.624 155.343 136.95 152.938 135.867C149.72 134.415 139.295 126.645 134.389 122.27C129.484 117.894 122.819 110.489 122.668 110.044C122.663 110.009 122.67 109.973 122.688 109.943C122.707 109.912 122.735 109.889 122.769 109.878C122.803 109.866 122.839 109.867 122.872 109.88C122.906 109.893 122.933 109.918 122.95 109.949C123.152 110.346 129.591 117.593 134.584 122.047C139.786 126.688 150.148 134.285 153.057 135.598C155.553 136.72 157.574 138.481 158.335 140.187C158.349 140.223 158.349 140.262 158.335 140.298V140.318C161.029 141.508 164.56 143.61 166.082 145.475C166.521 145.986 166.842 146.59 167.02 147.241C167.198 147.892 167.23 148.574 167.112 149.239C167.33 149.683 168.427 152.016 168.015 152.837C167.978 152.916 167.923 152.986 167.855 153.041C167.786 153.095 167.705 153.133 167.619 153.15C166.965 153.277 166.268 152.408 165.638 151.639C165.349 151.274 164.928 150.742 164.738 150.691C164.794 150.895 164.866 151.096 164.952 151.29C165.19 151.877 165.463 152.539 165.261 152.928C165.224 152.997 165.171 153.057 165.107 153.103C165.044 153.149 164.97 153.18 164.893 153.194H164.861Z" fill="black"/>
<path d="M143.448 129.509C143.416 129.509 143.386 129.499 143.361 129.481C139.846 126.859 136.573 124.233 134.382 122.277C129.48 117.914 122.811 110.496 122.66 110.052C122.572 109.115 122.547 108.173 122.585 107.232C122.582 107.21 122.583 107.188 122.589 107.167C122.595 107.146 122.605 107.127 122.619 107.11C122.633 107.093 122.651 107.08 122.671 107.071C122.69 107.062 122.712 107.057 122.734 107.057C122.756 107.057 122.777 107.062 122.797 107.071C122.817 107.08 122.834 107.093 122.849 107.11C122.863 107.127 122.873 107.146 122.879 107.167C122.885 107.188 122.886 107.21 122.882 107.232C122.847 108.139 122.868 109.048 122.946 109.953C123.148 110.35 129.587 117.597 134.58 122.051C136.763 123.999 140.032 126.621 143.539 129.239C143.563 129.258 143.581 129.284 143.59 129.314C143.6 129.343 143.599 129.375 143.59 129.404C143.58 129.434 143.562 129.46 143.537 129.478C143.512 129.497 143.483 129.508 143.452 129.509H143.448Z" fill="black"/>
<path d="M142.532 96.2522C140.947 95.1138 139.917 92.2855 139.493 90.6989C139.097 89.2034 136.83 88.8186 135.867 89.8024C131.98 87.7595 129.904 92.3688 129.658 94.4632C130.696 94.3799 131.338 95.082 131.128 96.1332C133.11 95.9785 134.389 94.852 135.396 92.6981C135.396 92.6981 135.503 94.5862 136.398 95.7881C137.52 97.3113 139.679 97.0733 142.532 96.2522Z" fill="#C15D31"/>
<path d="M234.474 126.696C234.047 127.694 233.516 128.643 232.889 129.529C234.078 127.617 232.544 126.542 231.728 127.093C230.654 126.446 230.571 124.4 231.542 123.626C230.353 123.876 229.561 122.908 230.286 121.54C228.871 122.166 227.631 121.984 227.116 120.965C228.257 119.818 229.64 119.184 231.205 119.465C231.883 119.6 232.53 119.863 233.111 120.239C235.58 121.794 235.496 124.293 234.474 126.696Z" fill="black"/>
<path d="M231.383 128.684C231.364 128.686 231.345 128.684 231.326 128.679C231.307 128.674 231.29 128.665 231.274 128.653C231.259 128.641 231.246 128.626 231.237 128.61C231.227 128.593 231.221 128.574 231.219 128.555C231.217 128.535 231.218 128.516 231.223 128.497C231.228 128.478 231.237 128.461 231.249 128.446C231.261 128.43 231.276 128.418 231.293 128.408C231.31 128.399 231.328 128.392 231.348 128.39L232.536 128.085C232.575 128.075 232.616 128.08 232.65 128.1C232.684 128.121 232.709 128.153 232.719 128.192C232.729 128.23 232.723 128.271 232.703 128.305C232.683 128.339 232.65 128.364 232.612 128.374L231.423 128.68L231.383 128.684Z" fill="black"/>
<path d="M234.474 126.696C234.87 122.73 233.436 120.469 231.189 119.465C231.867 119.6 232.514 119.863 233.095 120.239C235.579 121.794 235.496 124.293 234.474 126.696Z" fill="#F09400"/>
<path d="M229.723 126.006C229.691 126.007 229.659 125.996 229.634 125.977C229.608 125.957 229.589 125.93 229.58 125.899C229.463 125.69 229.279 125.527 229.057 125.437C228.835 125.346 228.59 125.333 228.36 125.399C228.324 125.401 228.288 125.39 228.259 125.367C228.23 125.345 228.211 125.313 228.204 125.277C228.197 125.241 228.204 125.204 228.222 125.172C228.241 125.141 228.27 125.117 228.304 125.106C228.606 125.025 228.926 125.052 229.211 125.18C229.495 125.309 229.726 125.532 229.866 125.812C229.877 125.85 229.873 125.89 229.854 125.925C229.836 125.96 229.804 125.986 229.767 125.998L229.723 126.006Z" fill="black"/>
<path d="M225.332 128.584C225.295 128.584 225.26 128.569 225.232 128.543C225.205 128.518 225.189 128.483 225.186 128.446C225.16 128.209 225.06 127.987 224.901 127.811C224.783 127.683 224.692 127.532 224.636 127.368C224.579 127.203 224.557 127.028 224.572 126.855C224.619 126.399 225.099 126.189 225.562 125.986C225.966 125.872 226.317 125.621 226.557 125.276C226.61 125.157 226.625 125.025 226.601 124.897C226.576 124.769 226.512 124.652 226.418 124.562C226.287 124.415 226.119 124.305 225.932 124.244C225.745 124.183 225.545 124.172 225.352 124.213C225.315 124.226 225.274 124.224 225.238 124.207C225.203 124.19 225.175 124.159 225.162 124.122C225.149 124.085 225.151 124.044 225.168 124.008C225.185 123.972 225.216 123.945 225.253 123.932C225.501 123.872 225.76 123.88 226.003 123.955C226.247 124.031 226.465 124.17 226.636 124.36C226.77 124.493 226.86 124.664 226.894 124.85C226.928 125.036 226.904 125.227 226.826 125.399C226.624 125.847 226.121 126.066 225.681 126.26C225.241 126.454 224.889 126.605 224.865 126.887C224.855 127.023 224.874 127.16 224.92 127.288C224.967 127.417 225.04 127.534 225.134 127.632C225.33 127.854 225.45 128.132 225.479 128.426C225.481 128.445 225.478 128.465 225.472 128.484C225.466 128.502 225.456 128.52 225.443 128.535C225.43 128.549 225.415 128.561 225.397 128.57C225.379 128.579 225.36 128.583 225.34 128.584H225.332Z" fill="black"/>
<path d="M228.299 126.353C228.41 126.127 228.396 125.892 228.266 125.828C228.137 125.764 227.941 125.895 227.83 126.121C227.718 126.347 227.733 126.582 227.863 126.646C227.992 126.71 228.188 126.579 228.299 126.353Z" fill="black"/>
<path d="M134.266 98.7572C134.402 98.5457 134.415 98.3106 134.294 98.232C134.172 98.1534 133.963 98.2612 133.827 98.4727C133.69 98.6842 133.677 98.9193 133.798 98.9979C133.92 99.0764 134.129 98.9687 134.266 98.7572Z" fill="black"/>
<path d="M136.495 100.453C136.645 100.251 136.673 100.017 136.558 99.931C136.442 99.8445 136.226 99.938 136.076 100.14C135.925 100.342 135.897 100.576 136.013 100.662C136.128 100.749 136.344 100.655 136.495 100.453Z" fill="black"/>
<path d="M226.075 125.252C226.187 125.026 226.172 124.791 226.042 124.727C225.913 124.663 225.718 124.794 225.606 125.02C225.495 125.246 225.51 125.481 225.639 125.545C225.769 125.609 225.964 125.478 226.075 125.252Z" fill="black"/>
<path d="M225.523 129.981C226.295 130.037 227.07 129.988 227.829 129.834C227.516 131.123 225.8 132.028 225.523 129.981Z" fill="white"/>
<path d="M241.242 183.328C241.207 183.328 241.173 183.316 241.147 183.293C241.111 183.261 237.454 180.195 235.948 178.727C235.934 178.714 235.923 178.697 235.915 178.679C235.907 178.662 235.903 178.642 235.903 178.623C235.902 178.603 235.906 178.584 235.913 178.566C235.92 178.548 235.931 178.531 235.944 178.517C235.958 178.503 235.974 178.492 235.992 178.484C236.01 178.476 236.029 178.472 236.048 178.471C236.068 178.471 236.087 178.474 236.105 178.482C236.124 178.489 236.14 178.499 236.154 178.513C237.652 179.973 241.305 183.031 241.337 183.063C241.361 183.082 241.379 183.108 241.387 183.138C241.396 183.167 241.394 183.199 241.384 183.228C241.373 183.257 241.354 183.282 241.329 183.299C241.303 183.316 241.273 183.325 241.242 183.324V183.328Z" fill="black"/>
<path d="M248.937 199.687C248.912 199.687 248.887 199.681 248.864 199.668C248.842 199.656 248.823 199.637 248.81 199.616L246.476 195.752C246.456 195.718 246.451 195.678 246.46 195.64C246.47 195.602 246.494 195.57 246.528 195.55C246.562 195.53 246.602 195.524 246.64 195.534C246.678 195.543 246.71 195.568 246.73 195.601L249.048 199.473C249.061 199.495 249.068 199.521 249.068 199.547C249.069 199.573 249.062 199.599 249.049 199.622C249.036 199.645 249.018 199.664 248.995 199.677C248.973 199.691 248.947 199.698 248.921 199.699L248.937 199.687Z" fill="black"/>
<path d="M245.391 199.786C245.365 199.786 245.34 199.779 245.318 199.767C245.296 199.754 245.277 199.736 245.264 199.715L242.993 195.927C242.973 195.893 242.968 195.853 242.977 195.815C242.987 195.777 243.011 195.744 243.045 195.724C243.078 195.704 243.119 195.699 243.157 195.708C243.194 195.718 243.227 195.742 243.247 195.776L245.51 199.564C245.523 199.587 245.53 199.612 245.53 199.639C245.53 199.665 245.523 199.69 245.51 199.713C245.498 199.736 245.479 199.755 245.457 199.769C245.434 199.782 245.409 199.79 245.383 199.79L245.391 199.786Z" fill="black"/>
<path d="M241.547 199.889C241.524 199.889 241.501 199.884 241.481 199.873C241.46 199.863 241.442 199.848 241.428 199.83L238.654 196.22C238.638 196.205 238.625 196.187 238.617 196.167C238.608 196.147 238.604 196.125 238.605 196.103C238.605 196.081 238.611 196.059 238.621 196.04C238.631 196.02 238.645 196.003 238.662 195.989C238.68 195.976 238.7 195.966 238.721 195.961C238.743 195.956 238.765 195.956 238.787 195.961C238.808 195.965 238.828 195.975 238.846 195.988C238.864 196.001 238.878 196.018 238.888 196.038L241.662 199.647C241.679 199.669 241.69 199.696 241.693 199.723C241.696 199.751 241.691 199.779 241.678 199.804C241.666 199.829 241.647 199.85 241.623 199.865C241.599 199.879 241.571 199.886 241.543 199.885L241.547 199.889Z" fill="black"/>
<path d="M238.318 199.981C238.297 199.98 238.276 199.975 238.257 199.967C238.238 199.958 238.221 199.945 238.207 199.929L235.175 196.387C235.159 196.373 235.146 196.355 235.137 196.335C235.128 196.316 235.123 196.294 235.123 196.273C235.123 196.251 235.128 196.229 235.137 196.21C235.146 196.19 235.159 196.173 235.176 196.158C235.192 196.144 235.211 196.134 235.232 196.128C235.253 196.122 235.275 196.12 235.296 196.124C235.318 196.127 235.338 196.135 235.356 196.147C235.374 196.158 235.39 196.174 235.401 196.192L238.433 199.735C238.452 199.756 238.465 199.782 238.469 199.811C238.474 199.839 238.47 199.868 238.458 199.894C238.446 199.92 238.427 199.943 238.403 199.958C238.379 199.973 238.35 199.981 238.322 199.981H238.318Z" fill="black"/>
<path d="M229.458 153.816C229.428 153.817 229.399 153.809 229.374 153.793C229.342 153.77 229.32 153.736 229.313 153.698C229.305 153.659 229.313 153.619 229.335 153.586C229.374 153.531 233.194 147.894 233.808 146.807C233.816 146.787 233.828 146.768 233.843 146.752C233.858 146.736 233.877 146.724 233.898 146.716C233.918 146.709 233.941 146.706 233.962 146.707C233.984 146.709 234.006 146.716 234.025 146.727C234.044 146.737 234.061 146.752 234.073 146.77C234.086 146.788 234.095 146.809 234.099 146.831C234.103 146.852 234.102 146.875 234.096 146.896C234.09 146.917 234.08 146.937 234.066 146.954C233.444 148.053 229.735 153.523 229.576 153.753C229.563 153.772 229.545 153.788 229.525 153.799C229.504 153.81 229.481 153.816 229.458 153.816Z" fill="black"/>
<path d="M235.794 143.11C235.764 143.111 235.735 143.103 235.71 143.087C235.678 143.065 235.655 143.031 235.647 142.992C235.638 142.954 235.646 142.914 235.667 142.88C237.303 140.385 239.043 139.267 240.818 139.556C240.837 139.559 240.856 139.566 240.873 139.576C240.889 139.586 240.904 139.6 240.915 139.616C240.927 139.632 240.935 139.65 240.939 139.669C240.944 139.688 240.944 139.708 240.941 139.727C240.934 139.766 240.912 139.8 240.881 139.823C240.849 139.846 240.809 139.856 240.77 139.85C239.106 139.58 237.47 140.643 235.901 143.043C235.889 143.061 235.873 143.077 235.854 143.088C235.836 143.1 235.815 143.108 235.794 143.11Z" fill="black"/>
<path d="M242.779 158.688C242.751 158.688 242.724 158.681 242.7 158.667C242.676 158.652 242.657 158.631 242.644 158.606C242.632 158.581 242.627 158.553 242.629 158.526C242.632 158.498 242.643 158.471 242.66 158.45C242.684 158.418 245.113 155.09 245.997 153.59C246.019 153.562 246.051 153.542 246.087 153.535C246.123 153.529 246.16 153.535 246.191 153.553C246.223 153.572 246.246 153.601 246.258 153.635C246.27 153.67 246.268 153.707 246.254 153.741C245.363 155.252 242.926 158.588 242.902 158.624C242.889 158.644 242.87 158.66 242.849 158.671C242.827 158.682 242.803 158.688 242.779 158.688Z" fill="black"/>
<path d="M231.637 150.576C231.617 150.575 231.598 150.57 231.58 150.561C231.563 150.553 231.547 150.541 231.534 150.526C231.521 150.511 231.511 150.494 231.505 150.475C231.499 150.456 231.496 150.437 231.498 150.417C231.598 148.711 231.863 147.018 232.291 145.363C232.304 145.33 232.329 145.303 232.362 145.286C232.394 145.27 232.431 145.266 232.466 145.274C232.501 145.283 232.532 145.304 232.553 145.333C232.574 145.363 232.583 145.399 232.58 145.435C232.161 147.072 231.902 148.746 231.807 150.433C231.807 150.454 231.802 150.475 231.793 150.494C231.784 150.513 231.771 150.53 231.755 150.543C231.738 150.557 231.72 150.567 231.699 150.572C231.679 150.578 231.658 150.579 231.637 150.576Z" fill="black"/>
<path d="M253.815 208.219H226.811C226.788 208.116 226.802 208.008 226.85 207.914C227.017 207.481 227.75 206.637 230.761 205.728L231.126 205.621C233.503 204.943 235.144 204.431 236.277 203.959C237.236 204.571 238.039 205.398 238.623 206.375C238.623 206.375 245.046 205.927 245.391 205.863C245.656 205.815 250.055 203.023 252.06 201.742C252.214 202.015 252.353 202.293 252.484 202.571C253.214 204.267 253.657 206.072 253.795 207.914C253.811 208.108 253.815 208.219 253.815 208.219Z" fill="#F09400"/>
<path d="M258.419 192.757C258.386 192.755 258.355 192.742 258.33 192.72C258.306 192.698 258.289 192.668 258.283 192.636C258.276 192.603 258.281 192.57 258.295 192.54C258.31 192.51 258.334 192.486 258.364 192.472L262.422 190.885C262.457 190.878 262.493 190.883 262.524 190.9C262.556 190.917 262.58 190.945 262.593 190.978C262.606 191.012 262.607 191.049 262.595 191.082C262.583 191.116 262.559 191.145 262.529 191.163L258.471 192.749L258.419 192.757Z" fill="black"/>
<path d="M258.419 196.284C258.387 196.281 258.356 196.269 258.332 196.248C258.307 196.227 258.29 196.198 258.283 196.166C258.276 196.135 258.279 196.102 258.292 196.072C258.305 196.043 258.328 196.018 258.356 196.002L262.516 193.991C262.551 193.978 262.59 193.979 262.624 193.993C262.659 194.007 262.687 194.033 262.703 194.067C262.719 194.1 262.723 194.139 262.712 194.175C262.702 194.21 262.679 194.241 262.647 194.261L258.487 196.272C258.465 196.281 258.442 196.285 258.419 196.284Z" fill="black"/>
<path d="M188.616 190.151C188.588 190.152 188.56 190.144 188.536 190.129C188.512 190.115 188.493 190.093 188.481 190.067C188.468 190.042 188.464 190.013 188.468 189.985C188.471 189.957 188.483 189.931 188.501 189.909C188.961 189.335 189.486 188.817 190.067 188.366C190.1 188.353 190.136 188.352 190.17 188.363C190.204 188.374 190.233 188.397 190.251 188.428C190.27 188.458 190.277 188.494 190.271 188.529C190.266 188.565 190.248 188.597 190.221 188.62C189.671 189.055 189.171 189.55 188.731 190.096C188.717 190.113 188.7 190.127 188.68 190.137C188.66 190.146 188.638 190.151 188.616 190.151Z" fill="black"/>
<path d="M187.388 197.168H187.344C187.307 197.156 187.275 197.13 187.257 197.095C187.238 197.06 187.234 197.02 187.245 196.982C187.935 194.697 189.785 191.468 191.572 190.238C191.605 190.224 191.641 190.221 191.675 190.231C191.709 190.24 191.739 190.262 191.759 190.291C191.779 190.321 191.788 190.356 191.784 190.392C191.78 190.427 191.764 190.46 191.739 190.484C190.193 191.547 188.311 194.499 187.519 197.061C187.51 197.09 187.494 197.116 187.47 197.135C187.447 197.155 187.418 197.166 187.388 197.168Z" fill="black"/>
<path d="M189.421 197.339C189.383 197.338 189.347 197.323 189.32 197.296C189.292 197.27 189.276 197.234 189.274 197.196C189.246 196.2 190.503 194.05 194.128 191.282C194.144 191.27 194.162 191.261 194.181 191.256C194.2 191.251 194.219 191.249 194.239 191.252C194.258 191.255 194.277 191.261 194.294 191.271C194.311 191.281 194.326 191.294 194.338 191.309C194.35 191.325 194.359 191.343 194.364 191.362C194.369 191.381 194.37 191.401 194.368 191.42C194.365 191.44 194.359 191.459 194.349 191.476C194.339 191.493 194.326 191.508 194.31 191.52C190.526 194.407 189.555 196.442 189.555 197.188C189.557 197.227 189.542 197.266 189.516 197.294C189.489 197.323 189.452 197.341 189.413 197.343L189.421 197.339Z" fill="black"/>
<path d="M272.76 47.5217H244.261V88.4181H272.76V47.5217Z" fill="#E4D0C0"/>
<path d="M269.423 50.6593H247.598V85.2804H269.423V50.6593Z" fill="#F6EEE8"/>
<path d="M264.034 59.2075H252.983V76.7362H264.034V59.2075Z" fill="white"/>
<path d="M289.267 95.7285H260.095V111.726H289.267V95.7285Z" fill="#E4D0C0"/>
<path d="M286.513 98.4141H262.849V109.045H286.513V98.4141Z" fill="white"/>
<path d="M131.862 102.214C131.675 102.091 131.132 101.726 131.259 100.564C131.261 100.545 131.267 100.526 131.276 100.509C131.285 100.492 131.298 100.477 131.313 100.465C131.328 100.452 131.346 100.443 131.364 100.438C131.383 100.433 131.402 100.431 131.422 100.433C131.441 100.435 131.46 100.441 131.477 100.45C131.494 100.459 131.509 100.472 131.521 100.487C131.533 100.502 131.542 100.52 131.548 100.538C131.553 100.557 131.555 100.576 131.552 100.596C131.445 101.579 131.862 101.857 132.02 101.96L131.862 102.214Z" fill="black"/>
<path d="M135.059 97.5453C135.021 97.5443 134.984 97.5285 134.957 97.5012C134.929 97.4739 134.914 97.4372 134.913 97.3986C134.917 97.2937 134.895 97.1892 134.848 97.0954C134.801 97.0016 134.73 96.9216 134.643 96.8631C134.485 96.7832 134.309 96.7416 134.132 96.7416C133.954 96.7416 133.779 96.7832 133.621 96.8631C133.603 96.8706 133.584 96.8746 133.564 96.8747C133.545 96.8748 133.525 96.871 133.507 96.8637C133.489 96.8563 133.473 96.8454 133.459 96.8317C133.445 96.818 133.434 96.8017 133.427 96.7837C133.419 96.7658 133.415 96.7465 133.415 96.727C133.415 96.7075 133.419 96.6882 133.426 96.6701C133.433 96.6521 133.444 96.6356 133.458 96.6218C133.472 96.6079 133.488 96.5969 133.506 96.5894C133.71 96.4924 133.935 96.4457 134.161 96.4533C134.387 96.4609 134.608 96.5225 134.806 96.633C134.935 96.7195 135.039 96.8381 135.109 96.9772C135.178 97.1163 135.21 97.271 135.202 97.4263C135.202 97.4656 135.187 97.5034 135.159 97.5315C135.132 97.5597 135.094 97.576 135.055 97.5771L135.059 97.5453Z" fill="black"/>
<path d="M134.231 101.893C133.972 101.862 133.728 101.756 133.53 101.587C133.416 101.508 133.299 101.435 133.177 101.369C133.142 101.351 133.116 101.319 133.105 101.282C133.093 101.244 133.097 101.204 133.116 101.169C133.134 101.134 133.165 101.108 133.203 101.097C133.24 101.085 133.281 101.089 133.316 101.107C133.452 101.177 133.585 101.256 133.712 101.341C133.95 101.504 134.14 101.631 134.326 101.587C134.512 101.544 134.758 101.282 135.02 100.794C135.852 99.2708 136.129 98.9614 136.486 98.8463C136.695 98.7735 136.924 98.7792 137.129 98.8623C137.335 98.9455 137.503 99.1005 137.603 99.2985C137.614 99.3152 137.621 99.3337 137.624 99.3531C137.627 99.3725 137.626 99.3924 137.622 99.4115C137.618 99.4307 137.61 99.4488 137.598 99.4648C137.587 99.4808 137.572 99.4944 137.556 99.5048C137.539 99.5152 137.52 99.5222 137.501 99.5255C137.482 99.5287 137.462 99.5281 137.443 99.5237C137.424 99.5193 137.406 99.5111 137.39 99.4997C137.374 99.4883 137.36 99.4739 137.35 99.4572C137.283 99.3123 137.165 99.1981 137.018 99.1377C136.87 99.0772 136.706 99.0752 136.557 99.1319C136.307 99.2113 136.05 99.5008 135.261 100.941C134.948 101.516 134.675 101.801 134.378 101.873C134.33 101.885 134.281 101.892 134.231 101.893Z" fill="black"/>
<path d="M129.932 96.5299C129.897 96.5296 129.863 96.5172 129.836 96.4947C129.81 96.4723 129.791 96.4413 129.785 96.4069L129.575 95.2169C129.568 95.1964 129.566 95.1745 129.568 95.1529C129.57 95.1313 129.577 95.1105 129.588 95.0918C129.599 95.0732 129.614 95.0571 129.632 95.0448C129.65 95.0324 129.67 95.0241 129.692 95.0203C129.713 95.0166 129.735 95.0175 129.756 95.023C129.777 95.0285 129.796 95.0385 129.813 95.0523C129.83 95.066 129.844 95.0833 129.853 95.1028C129.863 95.1223 129.868 95.1437 129.868 95.1654L130.078 96.3554C130.084 96.3942 130.074 96.4338 130.051 96.4656C130.029 96.4975 129.994 96.5191 129.955 96.5259L129.932 96.5299Z" fill="black"/>
<path d="M127.994 99.6278C127.829 100.285 127.748 100.961 127.752 101.639C127.306 101.792 126.871 101.975 126.449 102.186C126.377 101.111 127.257 99.8539 127.994 99.6278Z" fill="black"/>
<path d="M166.945 149.406C166.917 149.406 166.889 149.397 166.865 149.382C166.841 149.366 166.822 149.344 166.811 149.318C166.153 148.055 165.306 146.901 164.298 145.895C164.271 145.867 164.256 145.828 164.257 145.789C164.258 145.75 164.274 145.712 164.302 145.685C164.331 145.657 164.369 145.642 164.408 145.643C164.448 145.644 164.485 145.66 164.512 145.689C165.543 146.717 166.409 147.899 167.08 149.191C167.089 149.209 167.094 149.228 167.095 149.248C167.096 149.267 167.093 149.287 167.086 149.306C167.08 149.324 167.069 149.341 167.056 149.356C167.043 149.37 167.027 149.382 167.009 149.39C166.989 149.4 166.967 149.405 166.945 149.406Z" fill="black"/>
<path d="M123.746 207.914H94.6335C95.7589 205.47 97.0546 203.027 98.3662 200.73C99.374 201.941 100.301 203.217 101.14 204.55L108.994 204.86C108.994 204.86 110.404 202.856 110.805 202.297C111.205 201.738 111.771 201.829 114.343 201.829C113.103 203.638 119.815 206.307 121.741 206.462C123.029 206.565 123.75 206.72 123.746 207.914Z" fill="#C15D31"/>
<path d="M62.5969 200.306C58.1906 199.596 53.4356 199.627 52.9403 199.81L52.8095 199.865C52.231 200.143 51.6683 200.845 51.28 202.051C50.9752 202.947 50.7978 203.882 50.753 204.828C50.7094 205.812 50.6499 206.065 51.6802 206.688C52.7104 207.311 52.9521 207.934 52.9521 207.934H46.8776C46.2516 207.934 44.7973 205.998 44.6705 205.383C44.5437 204.768 45.039 198.874 45.5106 193.626C45.9068 189.461 46.1604 185.649 46.6478 185.252C47.3333 184.697 49.1957 185.228 52.4093 186.006C55.377 186.743 58.3823 187.319 61.4121 187.731L61.8083 187.783C62.9971 191.516 62.6167 197.989 62.5969 200.306Z" fill="#FFDCAE"/>
<path d="M52.9521 207.914H46.8776C46.2516 207.914 44.7973 205.978 44.6705 205.363C44.5437 204.749 45.039 198.854 45.5106 193.606C45.9068 189.441 46.1604 185.629 46.6478 185.233C47.3333 184.677 49.1957 185.209 52.4093 185.986C51.4622 187.117 49.6118 189.358 49.5087 189.663C49.374 190.06 49.2512 192.837 49.1125 194.661C48.9579 196.922 49.1878 196.645 49.6197 197.121C50.0516 197.597 51.9536 196.621 52.0804 197.422C52.2454 198.257 52.4854 199.074 52.7976 199.866C52.2191 200.143 51.6564 200.845 51.2681 202.051C50.9634 202.947 50.786 203.882 50.7411 204.828C50.6975 205.812 50.638 206.065 51.6683 206.688C52.6985 207.311 52.9521 207.914 52.9521 207.914Z" fill="#C15D31"/>
<path d="M236.015 199.981H235.96C233.582 199.056 230.765 196.835 228.764 194.324C227.948 193.301 226.902 191.944 225.645 190.242C225.622 190.211 225.612 190.171 225.617 190.132C225.623 190.093 225.644 190.058 225.675 190.034C225.707 190.01 225.746 190 225.785 190.006C225.824 190.011 225.86 190.032 225.883 190.064C227.135 191.746 228.181 193.118 228.994 194.142C230.975 196.613 233.749 198.798 236.063 199.695C236.093 199.71 236.117 199.734 236.131 199.763C236.146 199.793 236.151 199.827 236.144 199.859C236.138 199.891 236.121 199.921 236.096 199.943C236.072 199.965 236.04 199.978 236.007 199.981H236.015Z" fill="black"/>
<path d="M250.332 199.647C250.312 199.646 250.293 199.641 250.275 199.633C250.258 199.624 250.242 199.612 250.229 199.597C250.216 199.583 250.206 199.565 250.2 199.547C250.194 199.528 250.192 199.508 250.193 199.489C250.379 196.835 249.492 194.637 248.109 192.158C246.227 188.885 243.885 185.899 241.155 183.293C241.123 183.27 241.102 183.235 241.096 183.196C241.09 183.157 241.1 183.118 241.123 183.086C241.146 183.055 241.181 183.034 241.219 183.028C241.258 183.022 241.298 183.032 241.329 183.055C244.301 184.796 254.544 189.635 262.35 189.032C262.386 189.035 262.42 189.05 262.446 189.075C262.472 189.101 262.488 189.135 262.491 189.171C262.494 189.207 262.484 189.243 262.462 189.272C262.441 189.302 262.409 189.322 262.374 189.33C254.54 189.929 245.109 185.391 242.13 183.828C244.555 186.276 246.653 189.028 248.37 192.015C249.781 194.542 250.685 196.775 250.494 199.512C250.49 199.552 250.471 199.588 250.441 199.613C250.41 199.638 250.371 199.651 250.332 199.647Z" fill="black"/>
<path d="M184.947 179.425C183.85 179.897 182.863 179.029 183.164 178.12C183.232 177.923 183.318 177.733 183.422 177.553C183.429 177.671 183.463 177.787 183.521 177.89C183.85 178.35 184.622 178.208 185.153 176.819C185.3 176.423 185.427 176.066 185.549 175.732C186.409 175.435 187.095 175.534 187.206 176.069C187.269 176.458 186.33 178.83 184.947 179.425Z" fill="#C15D31"/>
<path d="M184.329 179.707C183.972 179.712 183.627 179.582 183.362 179.342C183.188 179.187 183.064 178.985 183.004 178.76C182.944 178.535 182.952 178.297 183.025 178.077C183.096 177.87 183.186 177.671 183.295 177.482C183.31 177.454 183.334 177.433 183.362 177.42C183.391 177.407 183.423 177.404 183.453 177.41C183.484 177.416 183.512 177.431 183.533 177.454C183.555 177.477 183.568 177.506 183.572 177.537C183.576 177.63 183.599 177.72 183.639 177.803C183.68 177.864 183.737 177.913 183.803 177.943C183.87 177.974 183.943 177.986 184.016 177.977C184.373 177.93 184.745 177.482 185.018 176.787C185.145 176.462 185.268 176.109 185.415 175.709C185.422 175.687 185.434 175.667 185.449 175.65C185.465 175.634 185.484 175.621 185.506 175.613C185.74 175.506 185.993 175.446 186.251 175.44C186.508 175.433 186.764 175.478 187.004 175.574C187.094 175.624 187.173 175.694 187.234 175.779C187.295 175.863 187.337 175.959 187.356 176.062C187.459 176.565 186.437 178.977 185.026 179.584C184.805 179.673 184.567 179.715 184.329 179.707ZM183.39 177.958C183.361 178.029 183.334 178.099 183.311 178.168C183.255 178.334 183.249 178.514 183.295 178.683C183.341 178.852 183.436 179.004 183.568 179.12C183.749 179.274 183.971 179.373 184.207 179.402C184.443 179.432 184.682 179.392 184.896 179.286C186.239 178.707 187.111 176.391 187.051 176.113C187.041 176.052 187.017 175.994 186.981 175.943C186.944 175.893 186.896 175.852 186.841 175.824C186.455 175.682 186.029 175.696 185.652 175.863C185.53 176.24 185.411 176.573 185.292 176.887C184.975 177.712 184.523 178.223 184.052 178.283C183.927 178.299 183.8 178.28 183.685 178.229C183.57 178.177 183.472 178.094 183.402 177.989L183.39 177.958Z" fill="black"/>
<path d="M183.952 178.275C183.842 178.275 183.734 178.247 183.636 178.195C183.539 178.144 183.456 178.069 183.394 177.977C183.32 177.857 183.277 177.721 183.267 177.581C183.164 176.827 183.223 175.102 183.366 172.376C183.367 172.357 183.372 172.338 183.38 172.321C183.388 172.303 183.4 172.288 183.415 172.275C183.429 172.262 183.446 172.252 183.464 172.246C183.482 172.239 183.501 172.237 183.521 172.238C183.54 172.239 183.559 172.243 183.576 172.252C183.594 172.26 183.609 172.272 183.622 172.286C183.635 172.301 183.645 172.317 183.651 172.336C183.658 172.354 183.66 172.373 183.659 172.392C183.521 175.102 183.457 176.811 183.56 177.549C183.564 177.641 183.587 177.732 183.628 177.815C183.668 177.876 183.725 177.925 183.791 177.955C183.858 177.986 183.931 177.998 184.004 177.989C184.361 177.942 184.733 177.493 185.007 176.799C185.133 176.474 185.256 176.121 185.403 175.72C185.684 174.852 185.831 174.217 185.831 174.209C185.84 174.171 185.865 174.138 185.898 174.118C185.934 174.104 185.973 174.104 186.009 174.118C186.746 174.24 187.503 174.117 188.165 173.769C188.984 173.31 189.751 172.762 190.451 172.135C190.48 172.108 190.518 172.093 190.558 172.095C190.597 172.096 190.634 172.114 190.661 172.142C190.688 172.171 190.702 172.21 190.701 172.249C190.699 172.289 190.682 172.326 190.653 172.353C189.936 173 189.147 173.564 188.303 174.035C187.623 174.39 186.85 174.529 186.088 174.431C186.029 174.665 185.894 175.185 185.692 175.827C185.561 176.224 185.438 176.589 185.296 176.922C184.979 177.747 184.527 178.259 184.056 178.319L183.952 178.275Z" fill="black"/>
<path d="M179.3 153.955C179.262 153.949 179.227 153.929 179.203 153.898C179.18 153.867 179.169 153.828 179.174 153.789L182.094 131.46C182.1 131.422 182.121 131.387 182.152 131.363C182.183 131.34 182.222 131.329 182.26 131.333L196.632 133.218C196.666 133.229 196.694 133.251 196.713 133.281C196.731 133.311 196.739 133.346 196.734 133.381C196.729 133.416 196.713 133.448 196.687 133.471C196.661 133.495 196.628 133.509 196.593 133.511L182.367 131.647L179.467 153.828C179.464 153.848 179.458 153.866 179.448 153.883C179.439 153.9 179.426 153.915 179.41 153.927C179.395 153.939 179.377 153.947 179.358 153.952C179.339 153.957 179.32 153.958 179.3 153.955Z" fill="#F6EEE8"/>
<path d="M205.746 104.983V104.666C205.833 104.666 205.924 104.689 206.02 104.693C205.897 104.755 205.801 104.857 205.746 104.983Z" fill="#E4D0C0"/>
<path d="M166.466 96.5854V97.5216C167.742 98.0888 170.757 99.0567 170.068 100.231C170.888 100.366 171.506 101.548 170.218 102.186C170.432 102.98 169.525 103.753 168.721 103.682C168.792 104.356 168.027 105.046 166.862 104.919C165.574 104.777 165.404 103.44 166.002 103.269C165.789 103.2 165.597 103.075 165.447 102.907C165.297 102.74 165.194 102.536 165.148 102.315C165.103 102.095 165.116 101.867 165.186 101.653C165.257 101.44 165.383 101.249 165.551 101.1C164.917 101.052 164.806 99.4732 165.709 99.0567C164.933 98.6084 164.897 96.7044 166.466 96.5854Z" fill="#F88D7A"/>
<path d="M120.342 101.595C120.311 101.596 120.279 101.586 120.254 101.568C120.228 101.549 120.209 101.522 120.199 101.492C120.19 101.461 120.191 101.429 120.201 101.399C120.212 101.369 120.233 101.343 120.259 101.326C121.013 100.796 121.819 100.346 122.664 99.9809C122.702 99.9677 122.743 99.97 122.778 99.9871C122.814 100.004 122.842 100.035 122.855 100.072C122.868 100.109 122.866 100.151 122.849 100.186C122.831 100.222 122.801 100.249 122.764 100.263C121.944 100.62 121.162 101.059 120.43 101.572C120.404 101.588 120.373 101.597 120.342 101.595Z" fill="black"/>
<path d="M121.317 102.892C121.287 102.891 121.259 102.881 121.235 102.863C121.211 102.846 121.192 102.821 121.182 102.793C121.172 102.765 121.17 102.735 121.177 102.706C121.185 102.677 121.2 102.651 121.222 102.631C121.852 102.091 123.37 101.349 123.544 101.385C123.566 101.39 123.586 101.399 123.604 101.412C123.621 101.425 123.636 101.441 123.647 101.46C123.666 101.495 123.671 101.535 123.66 101.573C123.65 101.611 123.625 101.643 123.592 101.663C123.571 101.667 123.549 101.667 123.528 101.663C122.774 101.966 122.063 102.366 121.412 102.853C121.386 102.877 121.353 102.891 121.317 102.892Z" fill="black"/>
<path d="M122.419 104.34C122.389 104.339 122.361 104.329 122.337 104.312C122.314 104.295 122.295 104.271 122.285 104.244C122.274 104.216 122.272 104.187 122.278 104.158C122.284 104.129 122.299 104.103 122.32 104.082C122.948 103.625 123.61 103.217 124.301 102.861C124.336 102.842 124.376 102.838 124.414 102.85C124.451 102.861 124.483 102.887 124.501 102.922C124.519 102.957 124.523 102.997 124.512 103.035C124.5 103.073 124.474 103.104 124.44 103.122C123.775 103.472 123.137 103.87 122.53 104.312C122.514 104.324 122.496 104.333 122.477 104.338C122.458 104.342 122.438 104.343 122.419 104.34Z" fill="black"/>
<path d="M119.76 107.113C119.721 107.113 119.684 107.097 119.657 107.069C118.902 106.35 117.914 105.927 116.873 105.879C115.833 105.83 114.809 106.158 113.991 106.804C113.976 106.82 113.958 106.833 113.938 106.842C113.917 106.85 113.895 106.854 113.873 106.854C113.851 106.853 113.83 106.847 113.81 106.837C113.791 106.827 113.773 106.813 113.76 106.796C113.746 106.778 113.737 106.758 113.732 106.737C113.727 106.715 113.727 106.693 113.731 106.671C113.736 106.65 113.745 106.629 113.759 106.612C113.772 106.594 113.789 106.58 113.808 106.57C114.684 105.88 115.779 105.529 116.892 105.582C118.005 105.635 119.061 106.089 119.867 106.859C119.889 106.879 119.904 106.906 119.91 106.935C119.916 106.964 119.914 106.994 119.903 107.021C119.891 107.049 119.872 107.072 119.848 107.089C119.823 107.105 119.794 107.114 119.764 107.113H119.76Z" fill="black"/>
<path d="M119.487 125.732C119.45 125.732 119.414 125.718 119.387 125.693C115.476 122.087 112.465 118.358 112.013 117.454C111.996 117.419 111.993 117.378 112.006 117.341C112.019 117.304 112.045 117.273 112.081 117.256C112.116 117.238 112.156 117.236 112.194 117.248C112.231 117.261 112.261 117.288 112.279 117.323C112.639 118.041 115.449 121.639 119.59 125.475C119.612 125.494 119.629 125.521 119.636 125.55C119.643 125.579 119.641 125.61 119.631 125.638C119.62 125.667 119.601 125.691 119.575 125.708C119.55 125.724 119.521 125.733 119.491 125.732H119.487Z" fill="black"/>
<path d="M157.483 142.202C157.457 142.202 157.431 142.195 157.408 142.182C156.219 141.456 153.842 139.77 153.802 139.755C153.778 139.729 153.763 139.696 153.76 139.662C153.758 139.627 153.767 139.592 153.787 139.563C153.807 139.535 153.837 139.514 153.871 139.505C153.904 139.495 153.94 139.498 153.972 139.513C153.996 139.513 156.35 141.206 157.562 141.928C157.589 141.946 157.61 141.971 157.622 142.001C157.633 142.031 157.635 142.064 157.627 142.095C157.618 142.126 157.6 142.153 157.575 142.173C157.55 142.193 157.519 142.205 157.487 142.206L157.483 142.202Z" fill="black"/>
<path d="M156.183 145.153C156.161 145.159 156.138 145.159 156.116 145.153C154.766 144.448 153.464 143.653 152.221 142.773C152.197 142.747 152.183 142.713 152.182 142.678C152.181 142.642 152.192 142.608 152.214 142.58C152.236 142.552 152.267 142.533 152.301 142.525C152.336 142.518 152.372 142.523 152.403 142.539C153.634 143.403 154.921 144.184 156.254 144.88C156.286 144.893 156.313 144.918 156.328 144.949C156.344 144.98 156.348 145.015 156.34 145.049C156.332 145.083 156.312 145.113 156.284 145.133C156.256 145.154 156.222 145.164 156.187 145.161L156.183 145.153Z" fill="black"/>
<path d="M154.828 147.823H154.777C153.984 147.545 152.058 146.795 150.814 145.816C150.783 145.791 150.763 145.756 150.758 145.717C150.753 145.678 150.764 145.638 150.788 145.607C150.813 145.576 150.848 145.556 150.887 145.551C150.926 145.547 150.965 145.557 150.996 145.582C152.199 146.414 153.511 147.075 154.896 147.545C154.927 147.558 154.953 147.582 154.97 147.612C154.986 147.642 154.992 147.677 154.986 147.711C154.98 147.744 154.962 147.775 154.937 147.797C154.911 147.82 154.878 147.833 154.844 147.835L154.828 147.823Z" fill="black"/>
<path d="M113.277 204.701C113.245 204.7 113.215 204.688 113.189 204.668C113.164 204.648 113.146 204.621 113.138 204.59C113.129 204.559 113.131 204.526 113.143 204.496C113.154 204.466 113.175 204.44 113.202 204.423C113.915 204.07 114.691 203.861 115.485 203.808C115.504 203.807 115.524 203.809 115.542 203.815C115.561 203.821 115.578 203.831 115.593 203.844C115.608 203.857 115.62 203.873 115.629 203.891C115.637 203.908 115.642 203.928 115.643 203.947C115.645 203.967 115.642 203.987 115.636 204.005C115.63 204.024 115.62 204.041 115.607 204.056C115.594 204.071 115.579 204.083 115.561 204.091C115.543 204.1 115.524 204.105 115.504 204.106C114.757 204.158 114.026 204.353 113.353 204.681C113.33 204.694 113.304 204.701 113.277 204.701Z" fill="black"/>
<path d="M115.104 205.629C115.069 205.632 115.035 205.622 115.007 205.601C114.979 205.58 114.959 205.551 114.951 205.517C114.943 205.483 114.947 205.447 114.963 205.416C114.978 205.385 115.005 205.361 115.037 205.347C115.676 205.076 116.34 204.863 117.018 204.713C117.056 204.704 117.097 204.71 117.13 204.731C117.163 204.752 117.187 204.785 117.196 204.824C117.205 204.862 117.198 204.903 117.178 204.936C117.157 204.97 117.124 204.993 117.085 205.002C116.436 205.15 115.801 205.354 115.187 205.613C115.162 205.627 115.133 205.632 115.104 205.629Z" fill="black"/>
<path d="M51.4305 201.785C51.4096 201.79 51.388 201.79 51.3671 201.785C50.8366 201.53 50.2817 201.33 49.7108 201.186C49.6887 201.188 49.6666 201.184 49.646 201.175C49.6255 201.167 49.6071 201.154 49.5921 201.138C49.5771 201.122 49.5659 201.102 49.5592 201.081C49.5525 201.06 49.5506 201.038 49.5536 201.016C49.5566 200.994 49.5643 200.973 49.5764 200.954C49.5884 200.935 49.6044 200.92 49.6232 200.908C49.642 200.896 49.6631 200.889 49.6851 200.886C49.7071 200.884 49.7294 200.886 49.7504 200.893C50.3519 201.038 50.9363 201.247 51.4939 201.516C51.5254 201.529 51.5513 201.553 51.5669 201.584C51.5825 201.614 51.5869 201.649 51.5794 201.683C51.5718 201.716 51.5528 201.746 51.5256 201.767C51.4984 201.788 51.4648 201.799 51.4305 201.797V201.785Z" fill="black"/>
<path d="M50.9629 203.372H50.9114C50.423 203.184 49.9153 203.051 49.3977 202.975C49.3781 202.974 49.3589 202.969 49.3412 202.961C49.3235 202.952 49.3078 202.94 49.2948 202.925C49.2819 202.911 49.272 202.893 49.2659 202.875C49.2598 202.856 49.2574 202.836 49.259 202.817C49.2621 202.777 49.2804 202.741 49.31 202.715C49.3396 202.689 49.3782 202.676 49.4175 202.678C49.9592 202.75 50.4909 202.883 51.0025 203.075C51.0409 203.081 51.075 203.103 51.0973 203.135C51.1196 203.167 51.1282 203.207 51.1214 203.245C51.1146 203.283 51.0928 203.318 51.0608 203.34C51.0289 203.362 50.9894 203.371 50.951 203.364L50.9629 203.372Z" fill="black"/>
<path d="M217.312 71.8492C217.293 71.8477 217.274 71.8423 217.256 71.8332C217.239 71.8242 217.223 71.8117 217.211 71.7965C217.198 71.7813 217.189 71.7638 217.183 71.7449C217.177 71.726 217.175 71.7062 217.178 71.6866V71.4843C217.253 70.5005 217.479 67.5176 218.723 65.5025C218.746 65.4737 218.779 65.4544 218.815 65.4483C218.852 65.4421 218.889 65.4495 218.92 65.4691C218.952 65.4886 218.975 65.519 218.985 65.5544C218.995 65.5898 218.992 65.6278 218.977 65.6612C217.788 67.6128 217.55 70.5442 217.475 71.5081V71.7143C217.471 71.7536 217.452 71.7898 217.421 71.815C217.391 71.8402 217.352 71.8525 217.312 71.8492Z" fill="black"/>
<path d="M223.216 94.725C223.177 94.725 223.139 94.7093 223.111 94.6814C223.084 94.6535 223.068 94.6157 223.068 94.5762C223.068 94.5368 223.084 94.4989 223.111 94.471C223.139 94.4431 223.177 94.4275 223.216 94.4275C223.276 94.4275 229.263 94.0308 231.958 94.3124C231.996 94.3174 232.031 94.3371 232.056 94.3674C232.08 94.3977 232.092 94.4363 232.088 94.4751C232.083 94.5133 232.063 94.5479 232.033 94.5721C232.003 94.5963 231.965 94.6084 231.926 94.606C229.255 94.3164 223.296 94.717 223.236 94.721L223.216 94.725Z" fill="black"/>
<path d="M203.797 141.46C203.761 141.46 203.726 141.446 203.699 141.422C203.672 141.398 203.655 141.365 203.65 141.329L201.308 121.69L198.641 120.834C198.604 120.822 198.573 120.795 198.555 120.76C198.537 120.725 198.534 120.685 198.546 120.647C198.558 120.61 198.585 120.579 198.62 120.561C198.655 120.543 198.695 120.54 198.732 120.552L201.506 121.437C201.533 121.445 201.558 121.461 201.576 121.483C201.594 121.505 201.606 121.531 201.609 121.56L203.963 141.294C203.967 141.333 203.956 141.373 203.932 141.404C203.907 141.435 203.872 141.455 203.832 141.46H203.797Z" fill="black"/>
<path d="M169.172 100.429C167.88 100.394 166.632 99.9514 165.606 99.1637C165.587 99.1534 165.57 99.139 165.556 99.1214C165.543 99.1039 165.534 99.0836 165.529 99.062C165.525 99.0405 165.525 99.0182 165.53 98.9967C165.535 98.9752 165.544 98.9551 165.558 98.9377C165.571 98.9203 165.588 98.9061 165.608 98.8961C165.628 98.8861 165.649 98.8805 165.671 98.8797C165.693 98.879 165.715 98.883 165.735 98.8917C165.756 98.9003 165.774 98.9133 165.788 98.9297C166.764 99.6716 167.948 100.088 169.172 100.12C169.208 100.125 169.24 100.144 169.263 100.171C169.286 100.198 169.299 100.233 169.299 100.268C169.299 100.304 169.286 100.339 169.263 100.366C169.24 100.393 169.208 100.411 169.172 100.417V100.429Z" fill="black"/>
<path d="M169.192 102.163C167.892 102.207 166.606 101.881 165.483 101.222C165.466 101.214 165.45 101.202 165.437 101.187C165.425 101.173 165.415 101.156 165.409 101.137C165.402 101.119 165.4 101.099 165.401 101.08C165.402 101.061 165.407 101.042 165.416 101.024C165.424 101.007 165.436 100.991 165.451 100.978C165.466 100.965 165.483 100.956 165.501 100.949C165.519 100.943 165.539 100.94 165.558 100.942C165.578 100.943 165.597 100.948 165.614 100.957C166.737 101.611 168.025 101.927 169.323 101.865C169.398 101.865 169.473 101.928 169.473 102.012C169.474 102.031 169.471 102.051 169.463 102.069C169.456 102.087 169.446 102.104 169.432 102.118C169.418 102.132 169.402 102.143 169.384 102.151C169.366 102.159 169.346 102.163 169.327 102.163H169.192Z" fill="black"/>
<path d="M168.725 103.821C167.795 103.791 166.872 103.651 165.975 103.404C165.937 103.394 165.904 103.37 165.885 103.336C165.865 103.302 165.86 103.262 165.87 103.224C165.88 103.186 165.904 103.153 165.938 103.134C165.972 103.114 166.012 103.109 166.05 103.119C166.928 103.356 167.831 103.49 168.74 103.515C168.776 103.521 168.808 103.539 168.831 103.566C168.854 103.594 168.867 103.628 168.867 103.664C168.867 103.7 168.854 103.734 168.831 103.762C168.808 103.789 168.776 103.807 168.74 103.813L168.725 103.821Z" fill="black"/>
<path d="M221.85 104.915C220.582 104.999 218.129 105.189 217.491 105.439C214.922 106.443 212.235 107.11 209.495 107.422C207.91 107.553 207.03 106.629 207.399 106.351H207.228C205.6 106.248 205.382 105.003 206.016 104.681C204.336 104.586 204.086 103.372 204.874 102.94C202.422 102.718 202.727 101.492 204.328 101.322C207.676 100.965 211.016 100.092 212.177 99.3382C213.703 98.3584 213.057 97.6048 212.288 97.109C211.52 96.6131 208.468 96.4743 208.274 95.7603C208.08 95.0463 208.579 94.8519 209.677 94.7528C211.392 94.6417 213.113 94.6417 214.828 94.7528C216.694 94.8619 218.565 94.8619 220.431 94.7528C221.675 96.2482 221.933 100.949 221.85 104.915Z" fill="#F88D7A"/>
<path d="M205.196 103.114C205.069 103.114 204.954 103.114 204.851 103.114C204.832 103.113 204.813 103.108 204.796 103.099C204.778 103.09 204.763 103.078 204.75 103.063C204.738 103.048 204.728 103.031 204.723 103.013C204.717 102.995 204.714 102.975 204.716 102.956C204.72 102.917 204.739 102.882 204.768 102.857C204.798 102.831 204.836 102.819 204.875 102.821C206.008 102.916 208.441 102.468 211.397 101.631C211.435 101.62 211.475 101.624 211.51 101.643C211.544 101.662 211.57 101.694 211.581 101.732C211.592 101.77 211.588 101.811 211.569 101.845C211.55 101.88 211.518 101.906 211.48 101.917C208.762 102.67 206.464 103.114 205.196 103.114Z" fill="black"/>
<path d="M206.226 104.848H206C205.961 104.845 205.924 104.827 205.898 104.797C205.872 104.767 205.859 104.729 205.861 104.689C205.862 104.67 205.867 104.65 205.876 104.633C205.884 104.615 205.896 104.599 205.911 104.586C205.926 104.573 205.943 104.564 205.962 104.557C205.98 104.551 206 104.549 206.02 104.55C206.959 104.606 210.699 104.225 212.34 103.238C212.356 103.227 212.375 103.221 212.394 103.218C212.413 103.215 212.433 103.215 212.452 103.22C212.471 103.225 212.489 103.233 212.505 103.244C212.52 103.256 212.534 103.27 212.544 103.287C212.554 103.304 212.561 103.322 212.564 103.342C212.567 103.361 212.566 103.381 212.561 103.4C212.557 103.418 212.548 103.436 212.537 103.452C212.525 103.468 212.511 103.481 212.494 103.491C210.897 104.455 207.474 104.848 206.226 104.848Z" fill="black"/>
<path d="M207.216 106.502C207.181 106.496 207.149 106.478 207.126 106.451C207.103 106.424 207.09 106.389 207.09 106.353C207.09 106.318 207.103 106.283 207.126 106.256C207.149 106.228 207.181 106.21 207.216 106.205C209.423 106.205 212.471 105.292 212.843 105.05C212.876 105.029 212.916 105.021 212.955 105.029C212.994 105.038 213.028 105.061 213.049 105.094C213.071 105.127 213.078 105.167 213.07 105.206C213.062 105.245 213.039 105.279 213.006 105.3C212.57 105.594 209.471 106.502 207.216 106.502Z" fill="black"/>
</g>
<defs>
<clipPath id="clip0_134_86">
<rect width="317" height="238" rx="50" fill="white"/>
</clipPath>
</defs>
</svg>
